<svg xmlns="http://www.w3.org/2000/svg" xml:space="preserve" style="fill-rule:evenodd;clip-rule:evenodd;stroke-linecap:round;stroke-miterlimit:10" viewBox="0 0 408 556"><path d="M0 0h407.84v555.33H0z" style="fill:none"/><path d="M120.17 401.37c.3.41.46.46.52.52.01.39.09 1.03-.26 1.04-1.27.05-6.45-12.57-7.04-14.6a66 66 0 0 1-2.08-25.8c.03-.28.46-4.6 1.56-3.66-1.2 9.91 1.4 34.63 7.3 42.5" style="fill:#b4181f;fill-rule:nonzero"/><path d="m111.83 235.56-1.56.52c.51-.47 1.3-.39 1.56-.52" style="fill:#b22c46;fill-rule:nonzero"/><path d="M82.14 235.56c2.94-1.81 3.3-1.5 6.25-4.17.93-.64 2.39-1.02 3.12-2.35-1.44-.63-2.41 1.7-3.12 2.35-2.09 1.43-4.2 2.65-6.25 4.17-4.84 2.98-9.75 5.87-14.59 8.87 0 0 5.01-3.66 7.03-6.78-6.27 1.99-31.63 4.86-7.81-1.57-1.47-.29-7.28 2.4-5.47-.26l-11.2 1.3s-3.38-.67-3.91-1.56c4.44.95 8.4.64 12.5-1.3-5.57-.04-8.75-3.18-14.32-2.35l8.33-3.65h-9.38l4.17-2.6-9.9-.53 4.43-.78-5.99-1.3c4.9-1.71-3.03-2.3-4.43-4.43l7.04-.79c-3.44.07-11.85-.7-3.65-2.6-3.73.17-7.59.06-10.68-2.35 10.32 3.76 18.36-3.65 27.87-6.52 1.84.31-.81 1.24-.78 1.3.69 1.46 3.7.21 3.9.27.46.12 1.01 1.87 2.1 2.08.2.05 1.92-1.98 3.9-.26-4.83 2.97-12.47 5.58-16.93 8.6-3.14 2.13 5.9-1.86 5.47-1.3l-6 4.43c8.73 1.5 17.2-5.89 25.53-5.73l-5.2 3.13 8.33-2.61-13.29 9.13c4.99-.88 14.89-8.6 5.47.26 3.3-1.55 5.26-4.74 9.12-3.91l-2.34 2.86 5.2-1.56c-5.66 1.54-1.9 1.82-1.82 2.34.24 1.45-3.35 2.79 3.13 1.57l-3.65 3.13 7.82-1.57L72.5 234c8.8 1.16 14.8-3.77 21.88-7.82.43 4.31-20.23 17.98-21.1 15.9 3.22-1.76 5.93-4.36 8.86-6.52" style="fill:#fcfaf8;fill-rule:nonzero"/><path d="m56.09 240.26-8.86-2.1 5.47.53-2.6-1.56 11.2-1.3c-1.81 2.64 4-.04 5.47.25-2.94 2.6-6.56 4.56-10.68 4.17" style="fill:#b81828;fill-rule:nonzero"/><path d="M65.99 242.86c-2.82.6-4.98.93-7.82 0 5.15-2.49 10.62-4.9 16.41-5.21-2.02 3.12-5.1 4.46-8.6 5.21" style="fill:#ba1826;fill-rule:nonzero"/><path d="M88.39 231.4c-2.96 2.67-3.3 2.35-6.25 4.16 2.06-1.52 4.16-2.74 6.25-4.17M88.39 231.4c.7-.65 1.68-3 3.12-2.36-.73 1.33-2.2 1.71-3.12 2.35" style="fill:#b71827;fill-rule:nonzero"/><path d="M73.02 225.66c1.3-.18.56 1.03-.52 1.04-.53-.27.43-1.03.52-1.04" style="fill:#bd2330;fill-rule:nonzero"/><path d="M357.73 236.08c-2 .44-2.84.43-3.91.52l-15.1-.52c2.43 2.86 11.54 3.32 13.23 3.45 0 0-8.52 3.68-19.37 1.96-4.4-.7-4.12-2.3-5.45-3.9.08.46-12.12-8.55-12.12-8.55 5.87 3.13 11.99 6.42 19.01 4.96l-12.24-6.52c2.98.42 12.98 4.74 9.64-.78 1.03.6 5.33 1.74 4.95-.26l-3.13-2.09h2.6c-.72-.33-1.67-1.54-2.08-1.82 2.49.47 3.38.02 5.47 2.08l-.52-2.6 7.56 3.39a135 135 0 0 0-10.42-7.04l.52-.52c.7.23 5.49 1.8 5.73 1.3l-6-3.4c6.62.64 14.2 3.34 20.85 5.75l-7.3-4.7 11.46 2.6-16.4-8.07 4.94 1.82-1.04-3.13 7.81 2.61c-4.02-3.45.15-3.77-3.64-6.26 9.8 2.51 18.3 11.02 28.65 5.74-3.13 3.62-8.81 3.11-13.02 3.13l5.99 1.3-6.25 1.57 5.2.52-10.15 5.47 3.64 1.04c-2.68 1.48-5.34.21-8.33.53l4.69 1.56-10.16 1.3 6.25 2.61c-4.18.34-8.17 1.02-11.46 3.65.07 1.19 6.34 1.12 9.9 1.3" style="fill:#fcfaf8;fill-rule:nonzero"/><path d="M357.73 238.17c.74-.02 2.2-.78 2.08.26-3.65.79-7.67 1.97-11.46 1.83-3.6-.14-7.2-1.32-9.64-4.18l15.11.52c1.79 1.35-.64.76-1.04 2.09 1.68-.26 3.23-.48 4.95-.52" style="fill:#bc172c;fill-rule:nonzero"/><path d="M348.35 242.34c.47.13 1.2-.26 1.56.26.19 1.46-10.36.66-11.98.26-2.27-.55-6.22-2.84-7.03-5.21 6.05.76 11.61 3.13 17.45 4.69" style="fill:#b51826;fill-rule:nonzero"/><path d="M355.38 208.97c1.07-.02 1.82 1.25.52 1.04-.1-.01-1.04-.77-.52-1.04" style="fill:#ba3142;fill-rule:nonzero"/><path d="M348.87 168.3c-.7.33-2.79.37-3.65 1.3 1.06.44 2.5.3 3.65.26 13.77-.52 28.23 2.38 39.33 10.95 5.62 4.34 13.57 15.26 10.68 22.69-.25.64-.58-.37-1.04-.27.78-1.4 1.03-4.23-.52-4.95v3.65c-2.08-3.42-.18-6.8-2.6-11.47-8.2-15.78-44.49-18.95-59.66-14.86-3.56.96-22.6 11-22.66 13.82-.05 2.57 3.67.77 3.91.78 2.97.14 5.9.22 8.86.52l-8.08-1.82c1.84-.58 6.44-3.78 8.08-3.91 4.67-.38 14.14 2.9 19.27 3.12-5.53-2.83-11.84-3.62-17.97-3.9 5.46-4.19 12.53-.43 19.01-.79l-15.36-2.34a29 29 0 0 1 18.5-.79l-5.22-2.08.52-1.05 13.03 2.09-12.5-3.65c6.92-1.12 14.14-.5 20.31 3.13l-2.6-2.6c9.61-.72 28 7.28 32.03 16.42 1.76 3.97 1.57 6.96 1.57 11.2 0 .4.07 2.29-.52 1.05.02-.48.17-1.87-.26-2.09l-3.91 4.96 3.12 1.3c0 .05.86-.19 1.05.26-7.83 2.31-13.4 8.27-20.32 13.3-.38.27-2.67 1.64-2.6 1.82.94 1.05 2.4-.74 2.6-.78.47-.1 3.06-1.16 1.3.52-2.88 1.72-5.71 3.51-8.6 5.21-.27.17-1.22-.28-1.56.27l1.57.26c.22 1.82-5.9 3.34-7.82 4.95l3.39.26c-1.4.3-5.4.35-5.47 1.04-1.16.06-9.82-.11-9.9-1.3 3.3-2.63 7.28-3.3 11.46-3.65l-6.25-2.6 10.16-1.31-4.7-1.56c3-.32 5.66.95 8.34-.53l-3.64-1.04 10.16-5.47-5.21-.53 6.25-1.56-6-1.3c4.22-.02 9.9.5 13.03-3.13-10.35 5.28-18.85-3.23-28.65-5.74 3.8 2.49-.38 2.81 3.64 6.26l-7.8-2.6 1.03 3.12-4.95-1.82 16.41 8.08-11.46-2.6 7.3 4.68c-6.65-2.4-14.23-5.1-20.84-5.73l5.99 3.39c-.24.5-5.04-1.07-5.73-1.3-.67-.23-2.42-1.98-3.65-1.3.97.73 2.09 1.18 3.13 1.82 3.6 2.2 7.04 4.5 10.42 7.03l-7.56-3.38.52 2.6c-2.09-2.06-2.98-1.6-5.47-2.08-.79-.55-1.45-1.6-2.6-.79.73 1.2 1.66.6 2.6.79.4.28 1.36 1.5 2.09 1.82h-2.6l3.12 2.09c.38 2-3.92.85-4.95.26 3.34 5.52-6.66 1.2-9.64.78l12.24 6.52c-7.02 1.46-13.14-1.83-19.01-4.96l22.92 15.39c.34.78.57.34 1.04.78-3.52-.1-7.33-1.12-10.94-1.83-.5-.1-2.1-1-2.86-1.04l.78 1.56c-.4.02-1.71-.36-2.09-.52-.26-.11-2.35-3.14-3.64-2.34l1.56 4.43c-.16.29.27 1.45-.26 1.56-.44.1-1.08-1.94-1.3-2.08-.03-.02.2-.3-.52-.52-4.3-7.28-8.32-14.72-12.77-21.9l10.68 21.9-.26 1.04c-.45-.16-.72-1.03-.78-1.04l-3.39-5.74 1.3 5.21c-1.56-1.18-2.04-3.27-3.12-4.17-.03-.03-.28-.3-.52-.52-1.64-2.76-3.34-5.6-3.9-8.86l1.82 8.86c-.4-.37-.66-.64-1.05-1.04.06-.45-.13-.48-.52-.52-3.26-4.23-6.02-13.07-7.55-18.25-.04 6.73 3.88 12.87 3.39 19.81-.03.43.32 2.34-.53 1.83v-2.35l-.52-.52c-.53-3.16-2.08-7.33-4.95-8.87l-1.04 3.65c-3.86-3.92-.79 2.58-.26 3.13.02.02-.91-.2 0 .52.1.09.4-.07.52 0-.1 2.24-1.85-.23-2.6-1.04 2.56 0-.8-2.2-1.83-2.6.09.77 1.28 2.02 1.83 2.6-1.94.14-8.97-3.81-9.9-1.82 1.03 9.32 4.58 17.53 3.65 27.11-.33 3.31-2.86 8.42-3.13 11.47-2.73 31.45 8.36 44.65 15.63 72.48 5.78 22.13 8.1 44.98-4.69 65.17 10.18-24.9 4.8-48.4-1.04-73.26a377 377 0 0 0-9.64-34.4c.84 11.39 3.5 22.48 4.43 33.88 1.7 20.64.55 46.7-13.02 63.61 10.91-24.12 12.1-52.15 5.47-77.69 3.05 29.9-2 58.11-14.85 85-6.05 12.65-15.2 27.38-23.97 38.32-2.28 2.84-19.9 22.04-21.62 22.68-.78.3-.73-.52-.78-.52.6.09.46-.44.52-.52 1.35-1.8 4.65-6.06 5.47-7.83.22-.46 1.28-1.7 0-1.56-2.61 3.18-4.93 6.75-7.55 9.9-7.18 8.67-13.75 15.75-15.89 27.64-2.07-15.52-14.12-26.03-22.66-38.06-11.85-16.68-23.87-33.23-33.08-51.62 2.2 7.19 6.09 13.82 10.16 20.07l-4.7-4.17c4.47 11.48 8.54 23.4 15.64 33.63-.06 0 .15 1.08-.26 1.05-2.05-.19-21.5-29.43-23.7-33.37-10.21-18.2-16.73-37.57-20.33-58.14.46 22.45 9.53 42.79 17.2 63.35v.52c.01.6-.29 1.53.52 1.57.02.68-.08 1.41 0 2.08.08.7.5.49.52.52.11.45-.07 1.07 0 1.57v11.73c-.23-14.8-9.12-27.3-14.59-40.41-11.1-26.61-15.83-48-12.5-77.43 1.25-11.09 6.77-21.71 5.47-33.1-5 12.06-9.48 24.77-11.2 37.8-.32 2.35.93 5.75-1.05 7.3-1.31-7.96 1.27-15.87 1.83-23.2.13-1.72-.45-1-.78-.27-10.06 21.94-17.2 50.82-7.3 73.78-.08.54 1.32 3.04-.52 1.3-7.32-14.14-10.73-29.6-9.37-45.62.63-7.53 3.43-15.2 5.47-22.42-4.23 7.3-7.31 15.35-9.64 23.46-1.22 4.24-2 8.53-3.13 12.78-.27-17.9 5.37-34.23 14.07-49.54 4.97-8.75 21.32-28.96 21.88-38.06.22-3.66-2.26-7.8-2.6-11.47-.89-9.32 2.25-18.04 3.64-27.11-2.67-3.56-6.33 1.6-9.38 1.3 3.5-2.43.98-1.86 1.04-2.6.01-.1 1.73-.63.79-1.57-.47.18-1.22 1.5-1.3 1.56-.43.27-2.1 2.23-2.09.79 1.38-.6 2.47-3.35 3.13-3.92.8-.7 1.75.06 1.82 0 3.26-2.84 6-6.84 10.42-7.82-.37-3.2-7.63 2.1-8.08.79 7.62-5.38 13.5-2.78 19.8 2.6-3.73-3.98-10.04-10.03-15.89-8.6-3.62.89-4.16 8.7-10.68 7.04h6.25l-3.12 2.08 2.6 1.05c-1.16.76-2.2 2.04-3.12 2.86-.98.89-3.58 1.84-4.17 3.65-.3-.6-1.64-2.78-2.09-3.12h-.52c-2.38 1.31-4.56 8-4.69 10.69-.9-.83-.58-3.28-.52-4.44.32-5.66 3.27-10.62 3.91-16.16-2.05 4.73-3.97 10.7-6.51 15.12-.43.74-1 .98-1.04 1.04l-.52.53c-.6.63 1.14 1.53-1.05 1.04l1.83-6.78c-1.29 2.08-1.78 4.63-2.87 6.78l-1.3 2.6-.78-1.3-2.87 6c-.63-.13.14-2.16.26-2.61.35-1.2 1.75-2.7 1.3-4.17-1.29.94-1.7 3.12-2.34 4.17-.52.85-1.57 1.84-1.82 3.13-.4-.2-.32-1.61-.26-2.09.77-6.51 9.27-14.2 10.68-20.85-4.9 6.38-7.83 14.24-12.25 20.85-.8 1.2-1.9 2.2-2.34 3.65-1.27.05 0-1.09-.26-2.08l1.56-4.43c-1.23-.2-2.67 2.07-3.12 2.34-1.13.68-2.35 1.25-3.39 2.09-1.89.07.5-1.2.78-1.57.04-.05.9-.37 1.04-.78-.89-.84-.98.25-1.04.26-1.77.26-13.12 3.22-13.54 2.35.49-.3 1.07-.48 1.56-.78 4.84-3 9.75-5.89 14.59-8.87-2.93 2.17-5.64 4.76-8.86 6.52.87 2.08 21.53-11.58 21.1-15.9-7.08 4.05-13.09 8.98-21.88 7.82l9.64-5.48-7.82 1.57 3.65-3.13c-6.48 1.22-2.89-.12-3.13-1.57-.08-.51-3.84-.8 1.83-2.34l-5.21 1.56 2.34-2.87c-3.86-.83-5.82 2.37-9.12 3.92 9.42-8.87-.48-1.14-5.47-.26l13.29-9.13-8.34 2.6 5.21-3.12c-8.33-.16-16.8 7.23-25.52 5.73l5.99-4.43c.43-.56-8.6 3.43-5.47 1.3 4.46-3.02 12.1-5.63 16.93-8.6-1.98-1.72-3.7.3-3.9.26-1.09-.21-1.64-1.96-2.1-2.08-.2-.06-3.21 1.2-3.9-.26-.03-.07 2.62-1 .78-1.3-9.5 2.86-17.55 10.27-27.87 6.51 3.1 2.41 6.95 2.52 10.68 2.35-8.2 1.9.21 2.67 3.65 2.6l-7.04.79c1.4 2.13 9.33 2.72 4.43 4.43l6 1.3-4.44.78 9.9.53-4.17 2.6h9.38l-8.33 3.65c5.57-.83 8.75 2.31 14.32 2.35-4.1 1.94-8.06 2.25-12.5 1.3-.35-.58-.48-.47-.52-.52-1.04-1.12-1.18-.76-1.56-1.04-.25-.26-.08-.8-1.05-.52-1.08-.71-6.16-2.86-6.25-3.65l2.6-.26c.04-.22-2.31-.63-2.6-.79-1.88-1.02-8.71-4.84-8.33-6.25-.08.57.3.42.52.52 1.18.51 2.87 1.37 4.17 1.3-1.37-1.2-3.22-1.85-4.7-2.87-6.58-4.55-10.83-10.54-18.75-12.25.2-.45 1.05-.2 1.04-.26l3.13-1.3c-.98-.84-2.16-1.5-3.13-2.35-.58-.51-1.03-.99-1.56-1.56-1.76-15.89 14.53-23.79 27.35-27.64-7.88.2-23.93 8.55-26.83 15.9-1.07 2.73-.43 10.06-2.6 7.83.12.7-.18 1.77 0 2.34-2.78-24.12 28.98-32.48 47.93-32.32 2.12.01 4.16.39 6.25.26-1.9-.84-3.84-1.5-5.73-2.35-50.25-22.66-58.6-80.45-21.1-119.4-18.5 42.33-1.67 82.31 46.36 87.6 7.53.82 32.39 1.2 39.08-.53 1.77-.45 4.89-4.41 9.63-5.21.38-.07.58-.05.53-.52.18-.04.4.05.52 0 .22-.1.9.2 1.04-.26-.16-.43-1.01-.73-1.04-.79-.82-1.5-2.18-2.64-2.87-4.17 14.04 5.7 25.64-1.31 37.77-7.82.2-.1.96.2 1.04-.26-.22-.48-.94-.16-1.04-.26-2.46-2.46-4.84-4.36-4.95-8.34 3.71 3.57 15.76 4.94 20.06 3.65.3-.1.59 0 .52-.52 3.05.56 6.28 1.1 9.38 1.3l-9.38-2.35c.02-.06-1.39-.43-.78-1.04 3.06.03 6.94.21 9.9 1.04 2.75.78 10.31 6.33 10.94 6.26s6.3-6.66 9.9-7.82c3.7-1.19 13.97-1.82 16.93 1.04l-11.46 3.91c4.8.05 8.65-.42 13.54.26 11.02 1.55 17.19 9 26.83 12 2.13.66 5.3.17 7.3.52.54.1-.84 1.33 0 1.56 1.88.53 10.4-1.94 10.15.52l-1.04.79 1.04.26c4.1.34 8.67 5.68 11.72 6.25 10.04 1.88 35.12.95 45.33-1.04 44.19-8.6 56.67-48.67 38.55-87.07 38.1 41.01 30.63 96.54-21.1 120.96" style="fill:#b71825;fill-rule:nonzero"/><path d="M224.88 419.1c.35-1.01 1.18-1.8.78-2.61-1 .91-1.89 2.23-2.86 3.13-7.88 7.25-13.01 14.99-13.8 26.07.95-1 1.2-3.64 1.81-4.43 1.31-1.7 1 .78 1.57 0 4.77-6.5 7.02-15.29 10.94-21.12.05-.08 1.5-.96 1.56-1.04-1.24 3.6-3.76 7.08-3.9 10.95l11.98-19.82c2.39.95-16.37 31.23-17.72 33.9-1.73-.14 1.39-4.02-.78-2.35-6.9 5.31-.76 24.5-9.64 28.41-8.05 3.55-11.86-16.79-13.8-21.11-1.01-2.24-12.99-23.75-11.72-24.25l7.81 12.52c-5.58-16.38 2.37 3.02 4.43 6.25.35.55.5.5.52.52l.52 2.87c.9.5.41-1.4.52-1.82.26-1.03.47-1.28.52-2.61.04-.96-.85-1.71-.52-2.87l2.35 7.56.78-8.08c2.85 9.1-3.02 20.1 5.99 27.9.5-3.37 3.6-1.42 4.43-4.96 1-4.27-1.34-10.38-1.05-14.6.47-6.66 6.7-13.18 5.21-20.33 1.16 4 1.62-.77 2.61-2.09 5-6.64 14.5-12.57 20.06-19.03 1.35-.12.49 1.22.26 1.83-1.25 3.27-6.83 8.25-8.86 11.2" style="fill:#fafbfc;fill-rule:nonzero"/><path d="M136.32 242.86c.9-.56 2.25-.6 2.08-2.08.9.22 1.23-.54 1.3-.53 2.83.55 4.75 9 8.08 10.17l-3.9 2.87v-2.09c-3.58 3.32-5.23 9.17-10.43 8.35-.5-.08-.03-1.53-.52-1.57-.22-.01-3.18 1.55-4.17 1.57-.52 0-5.44-.9-4.17-1.57 1.53-.79 5.56-.85 8.34-2.6 1.47-.93 3.26-3.09 4.43-4.44-10.39 8.36-17.9 1.75-15.63-10.42 3.58 7.76 8.43 6.2 14.59 2.34" style="fill:#fdfdfe;fill-rule:nonzero"/><path d="M198.05 316.38c12.43-1 22.35 2.27 33.08 8.08-6.9 2.2-13.53-4.58-20.58-4.95-2.91-.16-6.08 1.57-7.81 1.56-2 0-5.05-1.76-8.34-1.56-6.64.4-12.8 6.32-19.8 5.21 7.38-3.74 15.05-7.67 23.45-8.34" style="fill:#fcfbfd;fill-rule:nonzero"/><path d="M157.68 297.09c.48-1.38-1-1.16-1.05.26.15.4 1.03-.21 1.05-.26-1.2 2.11-1.65 4.73-3.91 6.26-.76-.87 3.72-4.82.78-3.65.18-.31 2.67-4.48 1.3-4.7-.82.87-4.04 6.89-4.43 7.04-1.63.64 2.91-6.72 3.13-7.3 4.9-12.8 9.55-26.65 6.51-40.4 5.53 14.71 4.25 29.27-3.38 42.75" style="fill:#f7f7f9;fill-rule:nonzero"/><path d="M121.47 273.1c1.34 19.86 2.92 38.07 10.68 56.57 3.46 8.25 8.88 15.47 12.24 23.73-19.52-21.34-23.52-52.2-22.92-80.3" style="fill:#f8fafc;fill-rule:nonzero"/><path d="M283.49 275.71c1.14 27.4-4.63 56.76-22.4 78.21-1.16-.56 9.86-19.29 10.68-21.12 8.3-18.48 11.15-36.88 11.72-57.09" style="fill:#f7f8fa;fill-rule:nonzero"/><path d="m169.92 264.76-.26 18.51 1.04-3.65.78 1.3 1.57-3.12c-.35 7.01-2.41 16.5-6 22.68-.35.61-1.1 1.49-.78-.26.77-4.2 4.02-8.72 3.39-13.3-2.17 7.4-5.06 14.55-9.12 21.12 5.76-13.8 7.72-28.51 9.38-43.28" style="fill:#faf8fa;fill-rule:nonzero"/><path d="M199.1 230.35c2 .94-4.92 9.14-5.48 10.17-4.75 8.65-8.79 18.8-11.2 28.41-.67-14.8 6.48-28.36 16.67-38.58" style="fill:#f9f8fa;fill-rule:nonzero"/><path d="M255.88 412.32c-3.82 16.02-14.77 29.62-27.1 40.15z" style="fill:#f9fbfc;fill-rule:nonzero"/><path d="M265.52 224.1c-2.54 7.49-4.09 15.34-8.6 21.89l-.26-2.87-1.82 1.3.78-2.34-2.35.78.79-2.35h-1.57c4.71-5.22 8.81-10.81 13.03-16.42" style="fill:#f9fafb;fill-rule:nonzero"/><path d="M154.03 243.9c-1.24-1.17-2.56-2.06-3.39-3.65.25 2.3-2.47.94-2.6 1.05-1.24.99.42 4.07-1.3 2.34l-6-17.98c4.4 6.75 10.25 10.35 13.29 18.25" style="fill:#fbfbfb;fill-rule:nonzero"/><path d="M270.46 291.35c3.85 6.49 4.13 19 1.3 25.81-1.47 3.56.17-5.15-1.3-4.95l-1.04 5.74-1.3-12.26 2.08 5.22c1.95 1.54.64-11.2.52-12.52l1.57 1.05z" style="fill:#f3f8f8;fill-rule:nonzero"/><path d="m189.46 236.6 8.85-7.56c-7.62 8.38-13.64 18.56-16.4 29.46.27-7.22 3.05-15.99 7.55-21.9" style="fill:#f4f4f7;fill-rule:nonzero"/><path d="M123.03 317.42c-3.6 15.03-4.18 30.48-3.12 45.89-2.26-15.1-2.56-31.53 3.12-45.89" style="fill:#f3f7f7;fill-rule:nonzero"/><path d="M245.72 291.87c-1.96-.28-1.35.5-1.04 1.83 1.44 6.29 6.2 12.42 10.94 16.68-8.65-4.44-12.94-17.15-14.07-26.33 1.5-1.48.71-2.83 0-4.43 1.5-3.4 2.46 8.38 2.6 8.86.3.98 1.07 2.08 1.57 3.4" style="fill:#eef7f7;fill-rule:nonzero"/><path d="m133.97 292.92-1.3 12.77 1.56-4.7v15.13l2.6-9.9-1.81 12.25c-3.9-7.93-4.66-17.42-1.05-25.55" style="fill:#d08796;fill-rule:nonzero"/><path d="M217.33 416.49c.4-.05 1.08-.13 1.3.26-2.79 4-6.7 6.82-9.12 11.21-1.58-3.47 5.1-11.1 7.82-11.47" style="fill:#f5f4f9;fill-rule:nonzero"/><path d="M189.46 236.6c-.47.93-2.07.5-2.61 1.3a52 52 0 0 0-7.03 15.91c-.13-7.78 4.45-14.78 9.38-20.33.45.93.75 2.15.26 3.12" style="fill:#eef7f6;fill-rule:nonzero"/><path d="M253.01 313.77c1.17 1.26 3.94 5.61 4.17 2.09 1.18.91 1.2.82 2.08 2.08l-1.04-.52c-1.14.39-.42 1.95.52 2.09.27.73.27.6.53 1.04l1.56 6.52-2.09-5.22-8.33-8.86c.82-.4 1.58.43 2.6.78" style="fill:#f6fbfb;fill-rule:nonzero"/><path d="M263.95 316.38a19 19 0 0 0-3.64-5.73l-2.35-5.74c3.35 3.7 7.42 8.33 6.77 13.56-.52-.48-.57-1.64-.78-2.09" style="fill:#f6fafb;fill-rule:nonzero"/><path d="M124.34 238.17c-3.92 1.46 8 8.89 11.46 3.13.07-.13-.08-.61.52-.52.8.06 1.96-.03 2.08 0 .17 1.48-1.19 1.52-2.08 2.08-6.57 2.24-13.76 1.32-13.55-7.04.86.03 1.1 1.77 1.56 2.35" style="fill:#da93a3;fill-rule:nonzero"/><path d="M136.32 240.78c-.6-.09-.44.39-.52.52-5.35 1.06-7.96 1.27-11.46-3.13.58-.22 3.53 2.38 4.94 2.6 2.17.36 4.64-.18 7.04 0" style="fill:#eef6f6;fill-rule:nonzero"/><path d="m248.85 289.27 4.16 9.64-5.2-7.04c-.1-1.38-1.01-1.95 1.03-2.6" style="fill:#ecedf1;fill-rule:nonzero"/><path d="M207.95 412.32c1.23.45-2.97 9.64-6.25 7.3z" style="fill:#f1f6f7;fill-rule:nonzero"/><path d="M260.3 310.65a19 19 0 0 1 3.65 5.73l-1.04 1.83c-.18-1.57-.77-3.1-1.56-4.44 1.2-.3-.43-.94-.52-1.04-.6-.63-1.63-1.56-2.09-2.09-.63-1.52-1.52-1.96-1.56-2.08-.08-.24.04-.71 0-1.04.85-.44 2.49 2.36 3.13 3.13" style="fill:#c97d90;fill-rule:nonzero"/><path d="M208.47 429c.25 3.44-1.44 7.45-3.12 10.43z" style="fill:#e7e4e9;fill-rule:nonzero"/><path d="M193.62 442.56c-.06 1.33-.26 1.58-.52 2.6-.41-.09-.7-.64-1.04-1.04-.02-.02-.17.03-.52-.52.61-2.82-1.52-6.52-2.6-9.38 1.79 2.83 2.66 5.87 4.68 8.34" style="fill:#d0a3b5;fill-rule:nonzero"/><path d="M175.65 279.36c1.02 3.45-1.4 7.98-2.08 11.47z" style="fill:#f1f8f8;fill-rule:nonzero"/><path d="M150.9 315.34c-2.92 3.35-5 6.74-6.5 10.95l2.86-8.09c1.07-1.4 2.13-2.02 3.64-2.86" style="fill:#db8b9f;fill-rule:nonzero"/><path d="m257.18 307.52-1.04.26c.08.37 1.02.72 1.04.78.72 1.66.74 1.13 1.56 2.08.32.77 1.06 1.73.78 2.61l-4.94-6.52c.48-1.51 2 1.8 2.08-1.3.1.31.97 1.09.52 2.09" style="fill:#c97d90;fill-rule:nonzero"/><path d="M254.32 325.24c.98.7 4.67 9.18 3.64 9.39z" style="fill:#c26e78;fill-rule:nonzero"/><path d="M257.18 315.86c-.23 3.52-3-.83-4.17-2.09 1.9.64 2.52.8 4.17 2.09" style="fill:#d9a6b8;fill-rule:nonzero"/><path d="M150.64 325.77c-.05 2.98-2.28 5.55-3.12 8.34-.28-2.91 1.97-5.82 3.12-8.35" style="fill:#ca505e;fill-rule:nonzero"/><path d="M259.27 317.94c.96 1.38 1.32 2.73 2.08 4.18-.87.92-1.47-.53-2.09-1.57-.25-.44-.25-.3-.52-1.04-.2-.6-.42-1.45-.52-2.09z" style="fill:#d9a6b8;fill-rule:nonzero"/><path d="M261.35 322.12c-.76-1.45-1.13-2.8-2.09-4.18 2.63.33 2.44 3.19 3.13 4.96z" style="fill:#f2f1f4;fill-rule:nonzero"/><path d="M143.35 309.6c1.19.62-1.79 5.82-2.08 5.74-.25-2.05 1.33-3.94 2.08-5.74" style="fill:#e5d6da;fill-rule:nonzero"/><path d="m138.66 232.96-1.04 4.17c-.19 1.28 2.77 1.38 0 1.56-2.03-1.14.92-4.02 1.04-5.73" style="fill:#c699a5;fill-rule:nonzero"/><path d="m120.95 250.68 3.12 4.7c-1.82-.46-2.66-3.04-3.12-4.7" style="fill:#d1abb1;fill-rule:nonzero"/><path d="M237.38 242.34c-.13 0-2.68-.28-2.6-.78 1.94-1.08 2.82-2.55 2.6.78" style="fill:#cf8b99;fill-rule:nonzero"/><path d="M222.8 414.4c-.63.79-1.8 2.92-3.13 2.35.57-2.06 2.25-1.72 3.13-2.35" style="fill:#f3f6f8;fill-rule:nonzero"/><path d="M234.78 315.34c.36-.02 3.24.87 3.12 1.82-1.6.65-2.38-1.15-3.12-1.82" style="fill:#efe4ed;fill-rule:nonzero"/><path d="M188.93 401.89c.1-.05.4-1.7 1.3-1.56.82.13 1.77 1.87-1.3 1.56" style="fill:#fcfcfd;fill-rule:nonzero"/><path d="m251.71 241.82.78.26-1.82 2.87z" style="fill:#e8f0f9;fill-rule:nonzero"/><path d="M243.64 259.02h-.52c.36-1.04.3-2.36 1.3-3.12.58.73-.72 2.7-.78 3.12" style="fill:#c27c92;fill-rule:nonzero"/><path d="M191.8 400.33c1.59-.87 2.36 1.98.52 1.56-.37-.08-1.21-1.18-.52-1.56" style="fill:#f6f4f3;fill-rule:nonzero"/><path d="M197.01 398.24c1.12.58.52 2.36-1.04 2.09z" style="fill:#f4e8ed;fill-rule:nonzero"/><path d="M154.55 299.7c-.48.8-.63 1.96-1.82 2.6-.7-.96 1.21-2.36 1.82-2.6" style="fill:#f8f8fb;fill-rule:nonzero"/><path d="M174.09 278.32c.86 1.07.5 1.89 0 3.13-.38-.07-.46-2.91 0-3.13" style="fill:#f3faff;fill-rule:nonzero"/><path d="M257.96 279.88c.67-.3 1.62 1.61 1.04 2.09-.4-.23-1.47-1.9-1.04-2.09" style="fill:#ca8ea2;fill-rule:nonzero"/><path d="M188.93 434.22c-.04-.1-1.87-.79-.78-2.09.5.38.62 1.83.78 2.09" style="fill:#c2a0aa;fill-rule:nonzero"/><path d="M144.13 269.45c-.08.08.24 1.7-.78 2.09-.85-.68.76-1.98.78-2.09" style="fill:#fcfbfc;fill-rule:nonzero"/><path d="m270.2 240.26-.52 1.04-1.04-.78c.31-.5 1.08-.2 1.57-.27" style="fill:#e8dddf;fill-rule:nonzero"/><path d="M222.8 414.4c.08-.05.1-2.25 1.56-1.3-.25.55-1.37 1.07-1.56 1.3" style="fill:#f3f6f8;fill-rule:nonzero"/><path d="M193.36 398.76c.18-.12 1.15-.08 1.3.26.4.87-2.97.88-1.3-.26" style="fill:#f1edf1;fill-rule:nonzero"/><path d="M256.66 305.43c-.03-.08-1.73-.64-.78-1.56.64.51.8.71.78 1.56" style="fill:#c97d90;fill-rule:nonzero"/><path d="M193.1 214.19c-.92.16-1.2-.31-1.56-1.05.3.18 1.46-.07 1.56 1.05" style="fill:#f1e6e9;fill-rule:nonzero"/><path d="M154.03 243.9c.03.09 1.73.66.78 1.57-.81-.3-.72-1.5-.78-1.57" style="fill:#fbfbfb;fill-rule:nonzero"/><path d="M193.36 223.57c.8-.29 1.15.77.52 1.04-.76.34-1.15-.81-.52-1.04" style="fill:#f0e6e4;fill-rule:nonzero"/><path d="M173.57 284.05c.25-.01.35.46.26.78-.3 1.94-.93-.74-.26-.78" style="fill:#f2f0f6;fill-rule:nonzero"/><path d="M150.9 315.34c.06-.03.47-1.38 1.05-.78.23 1.1-.97.69-1.05.78" style="fill:#db8b9f;fill-rule:nonzero"/><path d="M261.35 313.77c-.03-.05-.82 0-.52-1.04.09.1 1.72.74.52 1.04" style="fill:#f0f6fd;fill-rule:nonzero"/><path d="m209 424.31.77.26-.78.78-.26-.26z" style="fill:#ece7f1;fill-rule:nonzero"/><path d="M234.78 315.34c-.34.01-.99-.13-1.04.26-.09.58 8.1 6.47 8.6 8.08l-16.68-7.82c-1.53-.01.31 1.38.52 1.56.68.58 8.33 5.06 8.08 5.48-8.18-.2-14.54-7.05-23.19-8.08-15.35-1.85-25.43 2.99-39.07 8.34l10.42-8.87-19.27 9.39c10.22-8.86 22.93-15.24 30.47-26.85l-9.11 8.6-8.08 4.95c5.4-5.45 11.15-12.11 14.07-19.29 5.16-12.7-4.46 6.96-6.78 7.82 1.73-5.5 3.67-10.86 5.21-16.42.1-.34 1.12-1.69 1.05-2.35-.9-.35-1.25 1.24-1.57 1.83-5.55 10.26-12.22 24.99-19.8 33.63-.09.1-2.04 2.64-2.08 1.04 16.3-20.52 16.74-48.4 29.7-70.39-.35-1.6-2.52 1.95-2.6 2.09-9.04 14.02-10.49 30.84-16.42 46.14 5.77-20.24 8.1-42.32 21.36-59.44 2.4.1-.96 9.13 1.3 9.12l2.35-10.68 1.82 10.68v-10.42c2.65.21.63 4.97 2.6 6.25l-.77-13.3 4.16 9.91c1.04-3.64-3.05-6.46-.52-9.38l5.47 6.52c-.3-2.52-5.4-6.4 0-4.7l-6.51-7.03c9.38 3.23 19.6 12.68 21.36 22.42l-3.9-6c1.85 4.58 3.53 9.25 2.86 14.34-1.27-4.79-3.15-10.48-7.03-13.82 2.7 5.6 4.82 11.65 4.42 17.99-1.6-5.41-2.7-12.44-7.03-16.43 3.1 6.09 5.98 13.13 4.95 20.08-.95-2.86-1.53-7.27-3.9-9.13l3.38 16.43-7.56-20.6c-.03 3.43 2.62 7.74 3.65 11.47 4.2 15.25 6.7 31.18 13.03 45.89l-4.7-4.17 8.34 13.55-16.67-17.72c3.6 7.77 8.86 13.35 15.1 19.03" style="fill:#fdfeff;fill-rule:nonzero"/><path d="m188.93 282.49-.52-.52c.32-.59.68-2.18 1.57-1.83.07.66-.95 2.01-1.05 2.35" style="fill:#c68594;fill-rule:nonzero"/><path d="m218.89 265.28 7.81 25.55c-3.03-4.81-7.04-11.99-8.6-17.47-.1-.4-1.41-4.37 0-4.17.65 3.06 1.67 7.95 4.18 9.9z" style="fill:#ae191f;fill-rule:nonzero"/><path d="M203.78 305.43a30 30 0 0 1 18.5 6c-8.94-3.2-17.78-6.08-27.35-3.4z" style="fill:#ae1922;fill-rule:nonzero"/><path d="M187.11 277.27c-.52 7.65-4.42 14.5-8.33 20.86z" style="fill:#bd4759;fill-rule:nonzero"/><path d="m214.72 296.57 8.6 7.56c-2.93-1.62-8.08-3.94-8.6-7.56" style="fill:#ad191b;fill-rule:nonzero"/><path d="M201.7 246.51c.13 4-2.79 8.1-4.7 11.47z" style="fill:#c57d8a;fill-rule:nonzero"/><path d="M256.66 277.8c-.37-.47-2.48-4.16-3.13-2.87l4.17 6.25c-.05 1.74-1.43-.87-1.56 0-.1.64 2.03 2.72 1.3 3.92l-6.51-9.65 5.99 14.34-8.07-14.34c-.14 3.67 1.5 6.55 2.6 9.9l-2.6-2.08 2.08 7.3c-1.37.34-.54-1.8-2.08-1.3-2.05.65-1.14 1.22-1.05 2.6.28 4.1 2.55 6.36 3.91 9.91a38 38 0 0 1-5.99-9.9c-.5-1.31-1.26-2.42-1.56-3.4-.15-.48-1.1-12.26-2.6-8.86.7 1.6 1.5 2.95 0 4.43-1.04-8.34-1.18-17.09 1.56-25.02h.52c-.6 3.9-.77 8.04-.26 11.99 0-16.94 13.75-25.4 21.1-6.52-.2.8-5.08-6.22-4.7-3.13l4.17 6.78-5.73-4.17a22 22 0 0 1 6.25 8.86l-5.99-5.47 1.83 2.87c-4.83-.77 1.98 2.57 2.08 5.21l-2.34-2.35 1.3 3.4-2.35-1.83v2.08l-3.12-3.65c-1.09 1.38.21 3.33.78 4.7" style="fill:#fdfdfd;fill-rule:nonzero"/><path d="M256.66 277.8c.03.08 1.74.66.78 1.56-.82-.3-.7-1.47-.78-1.56" style="fill:#e8f5fa;fill-rule:nonzero"/><path d="M247.02 282.49c1 1.41 2.13 3.98 1.56 5.73-.99-1.4-2.12-3.98-1.56-5.73" style="fill:#bf1724;fill-rule:nonzero"/><path d="M223.32 420.14c-3.92 5.83-6.17 14.63-10.94 21.12-.58.78-.26-1.7-1.56 0-.62.8-.87 3.43-1.83 4.43.8-11.08 5.93-18.81 13.8-26.07z" style="fill:#b81a26;fill-rule:nonzero"/><path d="M224.88 419.1c-.05.08-1.5.96-1.56 1.04l-.52-.52c.97-.9 1.86-2.22 2.86-3.13.4.8-.43 1.6-.78 2.6" style="fill:#dfa1ac;fill-rule:nonzero"/><path d="M193.1 445.17c-.1.42.38 2.32-.52 1.82l-.52-2.87c.33.4.63.95 1.04 1.05" style="fill:#c72e2d;fill-rule:nonzero"/><path d="M264.74 240.78c3.58-.77 13.25 11.69 18.49.78 1.52 5.54.47 11.54-5.21 14.08 2.8.88 3.79-2.57 5.73-3.65.19 2.7-1.86 4.38-3.13 6.25-.35.53 1 .92.27 1.83-1 1.23-3.63.3-4.7.52-.67.13-6.39 1.18-7.29 1.04-5.56-.86-6.8-8.6-13.28-10.16 3.23-.72 7.58-10.36 9.12-10.7" style="fill:#fdfdfe;fill-rule:nonzero"/><path d="M266.3 256.94c.88-.4 2.2 2.44 2.08 3.13-.77.02-2.51-2.93-2.08-3.13" style="fill:#b82433;fill-rule:nonzero"/><path d="m264.21 256.94.79.26-.26.78-.27-.26z" style="fill:#b92133;fill-rule:nonzero"/><path d="M188.93 401.89c-.08.05.23.77-.26 1.04-.18.1-3.1-.78-3.64 1.05 1.79-.93 6.92 1.13 7.29 1.04.52-.13 0-1.35.52-1.57 1.77-.72 4.42-2.59 4.69-2.6.43-.03.1 1.66.52 1.56.68-.16 3.73-2.92 4.17-3.13.55-.25 2.67 2.88 2.6-2.08 3.13 2.42 6.49 1.27 9.9 2.08-.58 5.25-3.32 1.37-7.03.78-.08.2 2.14 3.39 2.34 3.4.29 0 1.06-3.23 4.17.52 1.74-.01.56-4.82 2.6-4.7.3.02.43 2.45 2.35.78l-.26 1.83c2.8-4.18 3.35 1.3 4.17-2.09l2.08 2.09c2-3.86.28-.4 3.13-.52 4-.17 8.24-4.77 11.2-7.04-1.93 3.17-5.05 8.08-8.08 10.17-.19.13-2.68 1.13-3.64 1.56-9.06 4.07-18.6 4.54-24.49-4.7-6.54 7.47-18.02 10.9-25.53 3.14-1.64.36 1.4 2.06 1.3 2.34-.86 2.6-12.46-10.8-13.02-11.99l12.24 7.56c.89-2.66 3.44-.44 3.65-.52.9-.35-.32-1.29-.26-1.3 5.19-1.36 3.34.9 7.3 1.3" style="fill:#fbfbfd;fill-rule:nonzero"/><path d="M205.87 399.28c.9-.56 1.1 1.82.52 2.09-.96.44-1.1-1.73-.52-2.09" style="fill:#be2237;fill-rule:nonzero"/><path d="M150.9 279.36c.24.06 2.64-1.72 1.83-2.6-1.19.69-1.32 1.68-1.83 2.6-3.73-1.02 4.4-7.15 4.7-7.56.13-.19-1.88-.03 1.03-3.39.06-.06 1.75.2.79-1.04-.43.15-.73 1-.78 1.04-2.4 1.35-3.09 3.19-3.91 3.65-.69.38-.8-2.51-2.09-2.08-.71.23-4.13 2.82-4.68 3.65l2.86-4.44c-.7-.38-1.26-.72-2.08-.78.08-.1-.08-.39 0-.52.03-.06.89-.36 1.04-.78-1.25-.97-.98.75-1.04.78-.38.15-1.68-1.85-1.57 1.04-.22.13-.94.43-1.04.52.21-1.14.42-4.03.26-5.21-1.7 1.56-.97 5.49-3.38 6 2.77-5.42.3-10.94 6.5-14.87 7.56-4.77 11.68 4.96 12.25 11.22.8 8.86-3.06 15.82-8.07 22.68l1.56-7.3-4.95 7.56c-.4-2.16 5.52-8.65 3.9-9.65l-3.38 3.91c1.12-1.12 1.43-3.23 2.08-4.43" style="fill:#fcfbfc;fill-rule:nonzero"/><path d="M146.74 268.41c-.63.8-1.58 2.53-1.57.52.55-.31.86-.57 1.57-.52" style="fill:#fcfbfc;fill-rule:nonzero"/><path d="m151.17 257.98-2.87 2.87 3.12-.52c-1.04 1.4-4.76 3.53-4.16.52z" style="fill:#c17d8f;fill-rule:nonzero"/><path d="M157.94 269.45c1 .2-.47 3.69-1.57 3.65-.57-1.45 1.68-1.95 1.57-3.65" style="fill:#c06987;fill-rule:nonzero"/><path d="M150.9 279.36c.5-.92.64-1.91 1.83-2.6.81.88-1.6 2.66-1.83 2.6" style="fill:#b92238;fill-rule:nonzero"/><path d="M146.74 265.28c.45-.52-1.52-1.88.78-1.56 1.06.72-.63 1.38-.78 1.56" style="fill:#ac2d3c;fill-rule:nonzero"/><path d="M146.74 267.89c-.08.13.08.41 0 .52-.71-.05-1.02.2-1.57.52-.11-2.89 1.2-.9 1.57-1.04" style="fill:#b71825;fill-rule:nonzero"/><path d="M154.29 282.49c1.18-.58.3 1.56-.52 2.08-.59-.36.38-2.02.52-2.08" style="fill:#b1182e;fill-rule:nonzero"/><path d="M146.74 265.28c-.41.49-.6 1.59-1.57.78l.79-1.3c.21.23.6.72.78.52" style="fill:#a91922;fill-rule:nonzero"/><path d="M146.74 267.89c.06-.02-.2-1.75 1.04-.78-.15.42-1.01.72-1.04.78M156.64 268.41c.05-.03.35-.89.78-1.04.96 1.24-.73.98-.78 1.04" style="fill:#b71825;fill-rule:nonzero"/><path d="m234.52 249.12 6.25 51.1-5.73-14.6 2.34 11.73-2.86-6 .78 4.43-1.82-3.9-.78 2.86c-1.01-5.74-6.22-12.12-3.91-17.99l1.82 5.48-1.04-6.78 1.04 1.04-.52-4.69 2.09 3.65-1.57-8.86 2.6 4.69c-1.06-1.36-.73-12.16.27-12.25.65-.07-.5 3.32 1.3 2.34-.72-3.98-1.31-8.34-.26-12.25" style="fill:#fbfcfd;fill-rule:nonzero"/><path d="M233.48 263.2c.4 0 .4 2.6 0 2.6-.46-.42-.37-2.6 0-2.6" style="fill:#b41f29;fill-rule:nonzero"/><path d="M157.68 297.09c-.02.05-.9.65-1.05.26.05-1.42 1.53-1.64 1.05-.26" style="fill:#b71825;fill-rule:nonzero"/><path d="M271.77 241.82c3.35.12 7.37.28 9.37-3.13 1.63 3.57-6.25 5.88-9.37 3.13" style="fill:#ac1917;fill-rule:nonzero"/><path d="M258.74 319.5c-.94-.13-1.66-1.7-.52-2.08.1.64.31 1.49.52 2.09" style="fill:#b71825;fill-rule:nonzero"/><path d="M394.2 192.55c-4.04-9.14-22.43-17.14-32.04-16.43l2.6 2.6c-6.17-3.61-13.4-4.24-20.32-3.12l12.5 3.65-13.02-2.08-.52 1.04 5.21 2.08a29 29 0 0 0-18.5.79l15.37 2.34c-6.48.35-13.55-3.4-19.01.78 6.13.29 12.44 1.08 17.97 3.91-5.13-.22-14.6-3.5-19.27-3.12-1.64.13-6.24 3.33-8.08 3.9l8.08 1.83c-2.96-.3-5.89-.38-8.86-.52-.24-.01-3.96 1.79-3.9-.78.05-2.82 19.09-12.86 22.65-13.82 15.17-4.09 51.81-1.1 59.65 14.86 1.71 3.48 2.7 5.17 2.37 7.63M9.2 203.76c-.83-.91-.55-9.01.52-11.73 2.9-7.36 18.95-15.71 26.83-15.9-12.82 3.84-29.11 11.74-27.35 27.63" style="fill:#fcfaf8;fill-rule:nonzero"/><path d="M281.15 142.23c-5.7-.4-9.63 1.17-14.33 1.04-6.03-.15-27.76-6.02-33.34-8.86-8.7-4.42-13.82-13.88-23.19-15.38l17.98 1.82c-2.69-3.08-7.39-3.82-11.2-4.43 12.78-2.3 23.28 3.54 33.86 9.39l-17.97-4.96c9.48 8.17 21.75 11.23 34.12 10.7-14.42 7.53-30.34-4.06-43.24-8.87 7.76 5.65 16.91 11.85 26.83 12.77 10.15.95 18.58-3.64 28.65-2.6l-9.64 2.34c.16.97 9.8-1.9 10.16.78l-22.14 3.92c8.34 1.02 16.76-3.13 24.75.26l-5.47.78c1.62-.16 3.1 1.06 4.16 1.3" style="fill:#fbfbfd;fill-rule:nonzero"/><path d="M270.99 181.86c3.62-.16 5.97 1.78 8.07 4.43-5.77-1.4-11.05.3-14.85 4.95 4.5-2.65 10.8-7.94 14.85-1.82-6.96-1.9-13.48 5.75-17.2 10.95-6.5 9.13-10.54 22.02-14.32 32.58-1-5.82.31-11.67 1.04-17.2-1.45-.34-3.96 17.04-4.16 18.77-6.17-14.56 10.47-51.96 26.57-52.66" style="fill:#fcfdfd;fill-rule:nonzero"/><path d="M284.27 160.48c-1.27-1.86-3.81-.28-5.99-1.04-2.95-1.04-6.72-4.3-10.42-5.22-15.48-3.82-34.05-.19-46.63-14.34-4.75-5.35-6.51-13.06-12.5-17.2 12.57 5.76 15.54 23.95 31.78 24.5a50 50 0 0 1-18.23-13.55c-.23-.27-2.06-4.93-3.13-6.26-1.78-2.22-4.7-4.96-7.3-6.26 4.62-1.73 18.94 16.64 20.59 16.43 1.22-.16-1.7-2.15 0-2.09l21.36 7.82-13.55-1.04c5.23 4.7 11.93 7.7 18.75 9.39 6.55 1.61 18.05 1.38 22.93 4.69.17.12.01 2.74 2.86 2.34.4 1.03-.36 1.48-.52 1.83" style="fill:#fbfbfc;fill-rule:nonzero"/><path d="M49.06 174.04c12.7-.73 23.53 1.18 34.38 7.82 1.4.85 12.18 8.67 12.5 9.38.41.88-2.26 2.05-1.82 2.87h2.6c-7.14 3.87-14.84 10.06-22.14 13.3-.25.11-3.47 1.07-1.56-.53l13.02-8.86c-7.04.88-13.68 3.95-19.27 8.34-.35-2.98 7.84-6.04 8.07-6.51.62-1.29-3.54-.23-1.3-1.83l19.02-6c0-1.01-9.36-1.99-9.12-2.86.68-.13 2.55.3 2.87-.26 1.4-2.5-15.54 3.09-14.07.52 3.22-2.25 7.42-1.82 11.2-1.83-6.64-3.8-14.8-.9-21.88.52 5.05-3.85 12.55-3.22 18.5-3.9-7.8-2.52-15.96-1.25-23.71.77 4.4-2.58 9.84-2.93 14.85-3.38-5.27-4.72-12.38-1.47-18.5.26l8.34-4.17-11.98 1.04 9.9-2.6c-7.22-.95-13.29-.3-19.8 3.12l3.9-2.87-5.47-.78c3.78-.34 7.7-1.35 11.47-1.56" style="fill:#fcfbfc;fill-rule:nonzero"/><path d="m283.75 199.06-.52.52c-.39-.81-2.1-2.45-2.87-2.6-8.27-1.62-17.9 17.99-20.57 24.24l-1.05-2.6-3.64 8.86c-1.61 1.85-.63-1.18-.52-1.56.7-2.6 3.34-6.38 2.08-8.87.49 4.1-3 4.4-3.13 4.7-.45 1.05-.12 5.44-1.82 7.03-.22-3.99 1.82-10.44 3.39-14.34 3.74-9.27 22.4-36.97 28.65-15.38" style="fill:#fdfdfe;fill-rule:nonzero"/><path d="M125.64 191.76c11.64-3.8 27.47 23.02 26.05 33.37-1.31-3.03-2.6-6.91-4.43-9.64-2.02-3 1.56 7.3.78 7.04-2.52-5.95-17.24-27.38-23.97-25.55-2.58.7-2.7 8.26-2.86 10.69 1.73-1.38 3.68-3.64 6.25-2.61-2.9 1.01-4.58 2.58-6.77 4.7-1.01-3.48 1.27-16.8 4.95-18" style="fill:#faf9fa;fill-rule:nonzero"/><path d="M328.81 173c.32-.06 2.14-.24 1.57.51-15.08 5.01-24.71 19.72-39.86 4.44 8.88-1.26 17.95-1.18 26.83-2.35 3.8-.5 8-2.06 11.46-2.6M181.12 170.9c7.05 1.26 14.37 9.93 16.41 16.7l-2.34-16.43c3.88 13.73 7.61 27.48 5.99 41.97l-1.3-6.52-1.05 3.65c-2.5-9.95-7.16-19.44-14.58-26.59-.22-1.3 2.25.7 2.34.79 4.89 4.05 9.4 11.45 11.98 17.2-2.23-12.81-5.91-23.63-17.45-30.76" style="fill:#fcfcfc;fill-rule:nonzero"/><path d="m34.47 177.69-13.55 8.86c-8.61 6.3-7.93 15.77 3.65 8.86l-4.43 3.91c11.12 4.12 22.9-1.99 34.39-.52-4.3 1.24-9.03 1.57-13.29 2.87-7.55 2.3-13.86 7.97-21.88 5.74l4.95-3.4c-1.62-.63-10.96-5.02-11.46-5.73-.38-.54 1.56-5.88 2.08-6.78 3.5-6.03 13.57-10.7 19.54-13.81" style="fill:#fcfcfe;fill-rule:nonzero"/><path d="m165.75 112.51 28.66 5.21c-6.21-2.1-9.94 2.22-15.11 4.7-1.65-.1 1.45-2.02 1.56-2.09 1.21-.68 3.2-.84 4.43-1.82-10.86.38-21.62 8.69-31.52 11.2-1.69.44-4.84-1.57-4.17 1.05 8.78 1.15 16.03-3.34 23.7-6.52-11.98 7.95-24.88 12.14-38.02 4.17l12.24.79 7.81-3.13-3.9 2.34c10.38 1.02 17.08-11.35 27.87-10.69-3.93-2.17-10.42-1.83-13.55-5.2" style="fill:#fbfafa;fill-rule:nonzero"/><path d="M136.84 184.47c17.56 4.99 26.33 31.86 24.22 48.49-1.78-17.27-9.45-33.75-23.18-44.58h3.65c-1.4-.86-3.49-3.25-4.7-3.91" style="fill:#fbfcfd;fill-rule:nonzero"/><path d="M387.42 198.02c.55.04 3.02-.22 3.65-.52-.98 2.28-3.84 3.2-5.73 4.43l2.86-.26v1.57l-6.5 1.82 4.42 2.35c-11.78.92-22.36-7.85-34.65-8.6.3-1.91 33.87 5 33.35 0-.08-.74-4.04-1.89-3.91-3.4 2.53 1.42 3.66 2.4 6.51 2.61" style="fill:#fcfdfe;fill-rule:nonzero"/><path d="M131.89 189.68c16.82 1.56 24.56 23.84 25 38.58-5.2-14.38-11.54-30.15-25-38.58" style="fill:#fbfcfd;fill-rule:nonzero"/><path d="m191.8 121.38.52 2.08 2.87-.78-3.91 3.39 7.03-3.4c-9.62 10.14-21.25 18.3-34.9 21.9 13.33-3.91 17.77-16.23 28.39-23.2" style="fill:#f8f6f9;fill-rule:nonzero"/><path d="M114.96 177.95c-4.97 4.8-10.79 7.89-17.71 6.52-3.02-4.37-2.6-4-7.04-6.26l.78-2.09" style="fill:#fcfcfc;fill-rule:nonzero"/><path d="M274.11 143.27c2.35-.22 7.56 1.24 10.42.52-.72 1.76-9.63 1.85-9.64 2.35l3.65.52-2.86 1.83 8.33 1.04-4.95 1.3 3.39.79c-7.23 1.39-14.92.05-21.62-2.87 2.89-.94 8.55.19 10.16-1.83l-9.12-.26c3.71-.24 8.98-3.07 12.24-3.39" style="fill:#fbfafa;fill-rule:nonzero"/><path d="M189.98 214.19v.52c-4.2.29-7.95 2.68-12.25 2.6 2.39 5.4-6.45 4.83-6.5-.78-.01-.42 1.04-.2 1.03-.26-.35.33 2.36 2.44 2.6 1.83.33-.96-2.3-2.1-2.6-1.83a37 37 0 0 0-.52-4.7c-.33 1.32 2.17 2.85 2.6 1.83l-2.6-1.82c-.3-1.43-.7-2.39-1.04-3.65 7.1 2.9 11.27 5.54 19.28 6.25" style="fill:#fbfafb;fill-rule:nonzero"/><path d="M312.14 190.72c8.55 3.73 18.44 4.49 26.31 9.65l-9.38-2.09 9.9 7.82c-3.67-1.73-6.96-4.3-10.68-6-1.8-.81-18.95-6.03-17.45-8.6z" style="fill:#f6fafc;fill-rule:nonzero"/><path d="M192.84 118.25c.72-.11 3.8-.47 3.65 1.04-12.77 1.48-18.82 13.33-28.13 19.81-4.31 3-11.05 5.8-15.9 8.08 3.27-2.48 22-13.46 23.19-15.9.69-1.41-1.5-1.1-.78-1.82 2.99-3.06 14-10.62 17.97-11.21" style="fill:#f3f5f8;fill-rule:nonzero"/><path d="M113.92 229.3c.91-.83 1.96-2.1 3.12-2.86l-2.6-1.05 3.12-2.08h-6.25c6.52 1.66 7.06-6.15 10.68-7.04 5.85-1.43 12.16 4.62 15.89 8.6-6.3-5.38-12.17-7.98-19.8-2.6.45 1.32 7.71-4 8.08-.79-4.42.98-7.16 4.98-10.42 7.83-.07.06-1.01-.71-1.82 0" style="fill:#faf9fa;fill-rule:nonzero"/><path d="M278.28 208.45c5.31-.75 6.3 3.32 7.55 7.56-6-3.53-8.6.08-12.76 1.3-1.62.48-1.04-2.29-3.13.52.48-3.25 4.98-8.9 8.34-9.38" style="fill:#fcfcfd;fill-rule:nonzero"/><path d="M125.9 207.4c4.76 2.37 6.62 4.08 8.85 8.87-1.97-.17-1.65 1.1-1.82 1.04-4.4-1.31-7.32-4.93-13.28-1.3 1.25-4.21 1.89-6.85 6.25-8.6" style="fill:#fbfcfc;fill-rule:nonzero"/><path d="m307.98 192.8 25.26 14.87c-3.14.76-26.1-13.5-25.26-14.86" style="fill:#f0f8fa;fill-rule:nonzero"/><path d="M280.62 199.59v.52c-5.47 1.14-8.85 6.96-12.24 10.95-.04.04-.7-.94-1.04-.53-1.36 1.65-1.99 4.69-2.87 6-.1.17-1.59 2.07-1.56.52 2.55-5.57 10.4-19.75 17.71-17.47" style="fill:#f7f8fa;fill-rule:nonzero"/><path d="M190.24 224.61c.46-.02 1.1-.14 1.3.26-7.7 5.66-13.52 12.07-15.89 21.64-3.14-5.58 10.37-21.67 14.59-21.9" style="fill:#f4f7f8;fill-rule:nonzero"/><path d="M190.76 221.48c.45-.1 2.85-.08 2.86.27-7.83 2.02-13.49 9.79-18.5 15.9-.06-6 10.56-15.1 15.64-16.17" style="fill:#f6f8f9;fill-rule:nonzero"/><path d="M295.21 187.6c-.95-.22-1.24-.56-2.08.51-.48.62-1.14 1.32 0 1.57.96.2 1.64-1.42 2.08-2.09.31.07.71-.03 1.04 0-.85.72-1.2 2.75-1.56 3.65-.1.09-.4-.08-.52 0-.21.15-1.25-2.6-2.35 3.13l-.78-4.95-1.56 2.34c.3-2.37 1.02-3.18 1.04-3.39.08-.84-1.12-4.5-.52-6l1.04 3.92c2.9-4.5 1.72.04 5.73 0-1.98.21-1.18.73-1.56 1.3" style="fill:#cd7a88;fill-rule:nonzero"/><path d="m311.1 225.66 19.02 15.9c-.9 2.4-20.54-11.7-19.02-15.9" style="fill:#f8fafb;fill-rule:nonzero"/><path d="M391.07 197.5c-.63.3-3.1.56-3.65.52-.28-2.54 2.77-1.2 3.13-2.35 1.71-5.44-13.93-14-17.45-16.94 6 2.83 21.18 11.25 17.97 18.77" style="fill:#eaefef;fill-rule:nonzero"/><path d="M95.42 198.02c1.6.04-.94 2-1.04 2.09-5.5 4.52-15.66 10.47-22.66 11.73 9-2.66 15.58-9.44 23.7-13.82" style="fill:#f3f5f4;fill-rule:nonzero"/><path d="m195.7 212.62 1.57 2.09c.38.57 2.25 2.77 2.08 3.39-1.2 1.75-2.55.15-3.64.26v-.53c.68-.06 2.15.27 2.6-.26a4 4 0 0 1-1.04-1.3c-.78-1.46-2.5-3.16-2.08-.52a40 40 0 0 0-5.21-1.04v-.53c.9.09 2.67 1.25 3.12 0-.1-1.11-1.25-.87-1.56-1.04-.07-.14.07-.39 0-.52l-2.87-3.65c2.62 1.15 4.79 1.59 7.04 3.65" style="fill:#cd6d80;fill-rule:nonzero"/><path d="M316.83 190.72c6.62 1.2 14.03.75 19.54 5.48z" style="fill:#f5f8fa;fill-rule:nonzero"/><path d="m188.67 229.83-11.46 21.9.78-6c2.35-6.05 5.42-11.81 10.68-15.9" style="fill:#e7ebec;fill-rule:nonzero"/><path d="m269.68 241.3.53-1.05q.25-.02.52 0c-.2.9.52 1.11 1.04 1.57 3.12 2.75 11 .44 9.38-3.13-.1-.2.05-.6-.53-.52 2.67-2.98.8-2.37-1.56-1.3 2.84-2.41 3.32-6.13 3.9-9.65-.73 2.29.1 12.27-.25 13.3-1.12 3.25-11.18 4.98-13.03.78" style="fill:#d17d8f;fill-rule:nonzero"/><path d="m307.45 196.98 26.31 14.34c-.74 3.54-25.06-11.9-26.3-14.34" style="fill:#e5f2ef;fill-rule:nonzero"/><path d="M125.12 198.02c8.45 3.47 12.31 12.85 16.67 20.34z" style="fill:#eaf5f6;fill-rule:nonzero"/><path d="M126.42 154.74v.52l-1.56.27c.9.92 1.48-.24 1.56-.27.35-.09.59.16.52.53-.14.03-1.82 1.34-2.34 1.56-.28.12-2.76-2.1-3.4 2.87 3.58-.67 7.32.11 10.69 1.3-2.74.6-5.89 1.82-8.34 0l5.21-.52c-9.88 2.41-11.15-4.21-2.34-6.26" style="fill:#d5828e;fill-rule:nonzero"/><path d="M284.27 206.36h.52c-.02.76.16 3.22-.78 3.65.02-1.8-2.74-3.51-4.17-3.65-2.92-.27-4.32 2.53-6.5 1.83 1.34-1.54 3.86-3.93 5.98-3.91 2.73.02 4.5 4.17 4.95 2.08" style="fill:#f8f6f8;fill-rule:nonzero"/><path d="M289.48 191.76c-.24 1.92-.45 4.18-1.04 6 .08-5.02-1.97-11.04 1.56-15.38-.6 1.48.6 5.15.52 6-.01.2-.74 1-1.04 3.38" style="fill:#e9ebef;fill-rule:nonzero"/><path d="M218.89 108.86c.76-.08 3.3-.37 3.65.52-6.74.25-12.1 3.89-17.98 6.52 3.76-3.53 9.18-6.5 14.33-7.04" style="fill:#edf7f7;fill-rule:nonzero"/><path d="M239.99 236.08v1.57c.18 2.32 2.7 5.06-.26 6.78 1.35-4.86.03-2.04-2.35-2.09l2.6-2.35c-1.42-1.53-1.83.6-2.6-1.82-.07-.24 0-.7 0-1.04-.01-1.3.53-.99.53-1.05l2.08-1.04c.01.34-.02.7 0 1.04" style="fill:#cf8b99;fill-rule:nonzero"/><path d="M230.35 197.5c.86-.15 1.24-.2 1.3.78.06.82-12.16 7.96-14.06 8.35 2.22-.65 11.99-9 12.76-9.13" style="fill:#eceded;fill-rule:nonzero"/><path d="m77.45 191.76.52 1.05c-.94.4-3.2 2.03-3.39 2.08-.34.1-2.28-3.16-5.47 1.05-.33-.15-1.51.24-1.56-.26 3.6-2.27 5.96-3.74 9.9-3.92" style="fill:#cb6b78;fill-rule:nonzero"/><path d="M281.15 238.7c-2.01 3.4-6.03 3.24-9.38 3.12-.52-.46-1.24-.67-1.04-1.56 3.35 0 6.97 1.17 9.9-2.09.57-.08.42.32.52.52" style="fill:#ebeceb;fill-rule:nonzero"/><path d="m219.15 169.34-1.04 1.57-4.7 4.43 3.14-3.65c.3-1.12-5.57.68 2.08-3.91z" style="fill:#c45d69;fill-rule:nonzero"/><path d="M274.63 225.13c2.66-.27 3.3 3.9.52 4.17-2.65.27-3.3-3.89-.52-4.17" style="fill:#fcfdfd;fill-rule:nonzero"/><path d="m98.03 208.97-5.74 5.74-6.5 3.39z" style="fill:#c98e96;fill-rule:nonzero"/><path d="M128.24 225.66c1.3-.43 3.78-.13 3.39 1.82-.75 3.73-7.7-.42-3.39-1.82" style="fill:#fcfbfc;fill-rule:nonzero"/><path d="m305.9 202.71 11.2 9.13c-4.26-1.66-8.6-5.48-11.2-9.13" style="fill:#e5ebe6;fill-rule:nonzero"/><path d="m115.22 183.42.52 3.65.78-2.87-.78 11.74z" style="fill:#d2889f;fill-rule:nonzero"/><path d="M99.07 203.24c-1.27 3.4-6.31 6.77-9.64 8.08z" style="fill:#e5e4d6;fill-rule:nonzero"/><path d="M220.97 197.5c1.3-.22-.7 2.25-.78 2.35-1.91 2.12-5.18 3.62-7.03 6 .9-3.7 5.48-5.47 7.81-8.35" style="fill:#f5f3f0;fill-rule:nonzero"/><path d="m300.16 188.11-5.73 12c.42-4.4 2.48-9.08 5.73-12" style="fill:#dfedf1;fill-rule:nonzero"/><path d="m92.63 177.76-.57 1.2c-1.24-.65-10.36-2.66-11.56-3.28l.08-1.32c1.2.17 11.33 1.8 12.53 1.96" style="fill:#fcfcfc;fill-rule:nonzero"/><path d="M70.94 190.72c.45-.02 1.14-.14 1.3.26-3.77 1.73-7.55 4.08-11.46 5.74 1.6-1.62 8.3-5.92 10.16-6" style="fill:#f3f8f3;fill-rule:nonzero"/><path d="M284.8 206.36h-.53l-3.65-6.25v-.52c1.79.55 2.5 1.31 2.87 3.12.63-.22 0-2.58-.26-3.12l.52-.53c.8 2.78 1.11 4.37 1.04 7.3" style="fill:#d499a8;fill-rule:nonzero"/><path d="M97.5 200.63c1.54-.01-.3 1.38-.52 1.56-2.27 1.95-6.42 4.46-9.11 6z" style="fill:#e8e7de;fill-rule:nonzero"/><path d="M284.27 160.48c-1.38 3.1-8.35 1.85-11.46 1.3z" style="fill:#f0f3f1;fill-rule:nonzero"/><path d="M219.15 169.87v-.53l-.52-1.56c.13-.08.39.07.52 0 .92-.5 1.6-.17 3.13-1.56.63-.58 1.23-.6 1.04-1.57.51 0 1.06.18 1.04-.52.33.13 2.08.43 2.08.78-2.5 1.55-5.08 3-7.29 4.96" style="fill:#d7aab0;fill-rule:nonzero"/><path d="M308.24 210.01a82 82 0 0 1 10.41 7.04c-3.2-.96-8.24-4.46-10.41-7.04" style="fill:#c4868c;fill-rule:nonzero"/><path d="m104.8 188.11 3.39 3.4 1.82 5.47z" style="fill:#e4f0ef;fill-rule:nonzero"/><path d="M285.05 183.42a37 37 0 0 1 2.09 12.52z" style="fill:#d0aeb9;fill-rule:nonzero"/><path d="m321 210.54 7.03 6.51c-2.56-.4-6.27-3.88-7.03-6.52" style="fill:#b57580;fill-rule:nonzero"/><path d="M84.48 210.54c-.6 2.7-4.62 5.57-7.03 6.51z" style="fill:#c26478;fill-rule:nonzero"/><path d="M287.14 164.13c3.2-.39-5.87 5.9-7.04 3.91z" style="fill:#ddafb9;fill-rule:nonzero"/><path d="M334.54 191.24c3.16 1.4 6.4 2.8 9.12 4.96-3-.73-6.87-2.85-9.12-4.96" style="fill:#cb7e89;fill-rule:nonzero"/><path d="m122.51 226.7 2.6 9.9-2.86-4.95z" style="fill:#da9eb2;fill-rule:nonzero"/><path d="M288.18 168.82c1.72.36-1.45 2.03-1.57 2.09-1.51.7-5.28 1.74-7.03 1.3z" style="fill:#e7dee1;fill-rule:nonzero"/><path d="m193.88 166.74-1.04 9.38c-.74 0 .02-9.62 1.04-9.38" style="fill:#d6b4bc;fill-rule:nonzero"/><path d="M126.94 155.79c.07-.37-.17-.62-.52-.52v-.53c2-.46 4.74-.78 6.77-.26-1.5 1.28-4.1.77-6.25 1.3" style="fill:#f7f0f3;fill-rule:nonzero"/><path d="M281.93 162.57c.47-.03 1.63-.16 1.04.52-2.44.7-5.13 1.88-7.56.26 2.1 0 4.5-.69 6.52-.79" style="fill:#d994a5;fill-rule:nonzero"/><path d="m120.95 182.38-2.09 8.86c-1.17-.02 1.12-8 2.09-8.86" style="fill:#c86e81;fill-rule:nonzero"/><path d="M294.17 191.24c.12-.08.42.09.52 0-.26.66-1.64 7.48-2.34 7.3z" style="fill:#e4e2e4;fill-rule:nonzero"/><path d="M224.36 211.58v.52c-.74.26-7.18 1.6-7.3.78 2.33-.83 4.88-1 7.3-1.3" style="fill:#d29093;fill-rule:nonzero"/><path d="M294.69 191.24c.36-.9.7-2.93 1.56-3.65.13-.1 2.7-1.12 3.13-.78-2.07.9-3.09 3.13-4.69 4.43" style="fill:#e4e2e4;fill-rule:nonzero"/><path d="m265.52 224.1 3.9-5.22c-.25 2.13-2.78 3.72-3.9 5.21" style="fill:#f9fafb;fill-rule:nonzero"/><path d="M136.84 184.47c-2.04-.58-4.19-.82-6.25-1.3 2.95-1.08 4.13.12 6.25 1.3" style="fill:#fbfcfd;fill-rule:nonzero"/><path d="M312.4 203.76v.52c-1.41-1.1-3.05-1.87-4.16-3.4 1.87-.49 3.27 2.23 4.16 2.88" style="fill:#c899a0;fill-rule:nonzero"/><path d="m266.3 233.48 1.56 4.17c-1.17.52-2.51-3.33-1.56-4.17" style="fill:#dfe5e4;fill-rule:nonzero"/><path d="M197.01 163.09c.71.17-.83 4.58-1.04 5.21-.8-.13.38-5.37 1.04-5.21" style="fill:#cd8188;fill-rule:nonzero"/><path d="M65.2 198.54c3.34.05-4.23 2.74-3.9 1.83z" style="fill:#c14452;fill-rule:nonzero"/><path d="M313.45 204.8v-.52c1 .85 2.8 1.42 3.64 2.87-1.34.5-2.82-1.79-3.64-2.35" style="fill:#c89ca6;fill-rule:nonzero"/><path d="m69.11 195.94 4.7.26c-1.57 1.32-3.1.41-4.7-.26" style="fill:#cb6b78;fill-rule:nonzero"/><path d="M196.49 207.4c-.05.53 2.72 3.78 1.56 4.18-.55-.27-2.53-3.96-1.56-4.17" style="fill:#d8cad6;fill-rule:nonzero"/><path d="m77.97 192.8-.52-1.04q2.1-.1 4.17-.26c.22.98-2.57.85-3.65 1.3" style="fill:#f2f3ef;fill-rule:nonzero"/><path d="m336.37 217.84-.52.52c-1.04-.64-2.16-1.1-3.13-1.83 1.23-.66 2.98 1.08 3.65 1.3" style="fill:#cd98a6;fill-rule:nonzero"/><path d="M225.92 153.18v.52c-.66-.52-2.54-1.06-3.12-2.34 1.38-.64 1.95 1.42 3.12 1.82" style="fill:#fbfbfd;fill-rule:nonzero"/><path d="M222.28 166.22c-1.53 1.39-2.2 1.05-3.13 1.56z" style="fill:#eff6f7;fill-rule:nonzero"/><path d="M281.15 142.23c1.35.1 2.87-.28 4.16.26-1.48.8-2.79.05-4.17-.26" style="fill:#d77b8c;fill-rule:nonzero"/><path d="M127.46 206.89c.5-1.15 2.84.45 2.6 1.3-.78.14-1.81-1.26-2.6-1.3" style="fill:#fbfcfc;fill-rule:nonzero"/><path d="M191.54 212.62c.07.13-.07.38 0 .52-.68-.38-2.37-.62-3.13-1.3z" style="fill:#f1e6e9;fill-rule:nonzero"/><path d="m197.27 214.7-1.56-2.08c1.27 1.16.89 1.07 1.56 2.09" style="fill:#f0f4fc;fill-rule:nonzero"/><path d="M333.76 222.53c-.94-.18-1.87.41-2.6-.79 1.15-.8 1.81.24 2.6.79" style="fill:#fdfdfe;fill-rule:nonzero"/><path d="M79.27 189.68c.92.1 2.08-.27 2.87.26 0 .26-3.09.73-2.87-.26" style="fill:#f6f4f3;fill-rule:nonzero"/><path d="M113.4 232.43h-.53c.1-.05.84-1.38 1.3-1.56.95.94-.77 1.48-.77 1.56" style="fill:#cd9fa5;fill-rule:nonzero"/><path d="M219.15 169.87c-.14.12-.42 1.14-1.04 1.04l1.04-1.57z" style="fill:#dee8e4;fill-rule:nonzero"/><path d="M224.36 212.1v-.52c.58-.08.9-1.02 1.56-.26-.45.85-1.04.6-1.56.78" style="fill:#edece4;fill-rule:nonzero"/><path d="M134.75 216.27c.04.08 1.75.68.78 1.56-.83-.27-.69-1.55-.78-1.56" style="fill:#e6f1f5;fill-rule:nonzero"/><path d="M123.03 202.2c1.3-.19.57 1.03-.52 1.04-.53-.27.43-1.04.52-1.05" style="fill:#d68291;fill-rule:nonzero"/><path d="M87.09 191.76c.43.05 1.77-.18 1.82.27.03.32-2.35.62-1.82-.27" style="fill:#f9f9fa;fill-rule:nonzero"/><path d="M239.99 237.65v-1.57c.03.52-.04 1.05 0 1.57" style="fill:#e9eaeb;fill-rule:nonzero"/><path d="M127.46 206.89c-.08 0-.38.95-1.56.52.07-.03.55-.98 1.56-.53" style="fill:#fbfcfc;fill-rule:nonzero"/><path d="M217.59 151.62c-.03-.06-1.38-.47-.78-1.05 1.1-.23.69.97.78 1.05" style="fill:#fbfbfd;fill-rule:nonzero"/><path d="m232.96 195.94.26.78-.79.26-.26-.26z" style="fill:#eceded;fill-rule:nonzero"/><path d="M313.45 204.28v.52c-.1-.07-.35.02-1.05-.52v-.52c.19.13.9.4 1.05.52" style="fill:#d9e9e8;fill-rule:nonzero"/><path d="M308.24 210.01c-.06-.06-1.4-.5-.79-1.04 1.09-.25.73 1.01.79 1.04" style="fill:#c4868c;fill-rule:nonzero"/><path d="m223.06 210.01.78.26-.78.79-.26-.26z" style="fill:#fdfdfe;fill-rule:nonzero"/><path d="m219.41 130.24.78.26-.26.78-.26-.26z" style="fill:#f0eff3;fill-rule:nonzero"/><path d="m239.99 235.04-2.09 1.04c-.03-1.26.18-8.2 0-8.6-.8-1.81-3.2 1.84-2.34-3.91-2.07 3.28-5.82 1.78-9.12 2.35 3.16 2.13 6.35 2.6 9.9 3.65-3.23 3.16-4.55 2.17-8.33 1.04 3.87 1.7 4.74 7.47 9.37 6.52 0 .33-.07.8 0 1.04-1.9.64-3.02.76-4.94 0-5.79-2.29-15.85-17.36-23.97-18.25l-3.39.26c5.27-2.17 11.51.32 16.41 2.35-1.27-1.44-4-3.45-5.73-4.17-1.55-.65-4.92-.08-5.73-1.57 7.47-1.97 21.95 8.57 25.01-1.56-4.43 5.64-11.71.95-17.2-.52l-4.94-.26c10.36-.6 21.07 2.29 23.7-10.7-2.12 2.98-6.1 7.8-10.16 6.52 7.41-3.63 12.65-10.36 16.15-17.72-5.12 6.58-10.23 13.4-18.23 16.68l12.24-11.73-10.16 6.52c2.2-2.5 5.22-4.17 7.3-6.78.97-1.22 3.19-3.61.52-2.6-.63-1.52 9.48-5.92 10.94-6.79l-21.1 11.74c-1.02-1.33 3.86-3.14 3.9-3.4.03-.13-1.97-.67-1.03-2.6l9.9-9.9c-6.14 2.08-11.4 6.28-16.68 9.9 6.03-7.63 14.15-14.24 23.7-16.42-13.36.46-26.24 11.57-32.81 21.9 4.79-16.78 21.02-24.86 36.72-28.94-9.48 1.05-19.17 4.1-26.3 10.69-3.06.36 5.39-5.45 5.73-5.74.26-.23 2.95-1.83 1.04-2.09-13.45 5.74-18.23 18.52-21.36 31.81-1.19-2.65 1.19-8.67-1.3-10.17-.49 3.6.6 10.05-2.09 12.52.33-13.2 2.4-28 9.64-39.37 1 .4-9.69 23.93-1.3 11.21-1.47 4.21-4.08 8.03-2.87 12.77 5.19-16.88 26.1-24.06 41.94-25.28-10.51-2.45-22.24 2.85-31.52 7.56 5.84-5.75 13.9-9.85 22.14-10.17-9.42-2.57-18.95.33-26.83-7.56 2.34 4.53 5.19 6 9.64 7.82.02.7-.53.52-1.04.52-5.97.03-11.47-6.4-14.33-10.95.3 5.56.36 10.97-2.08 16.17l.26-11.74 1.04.53-.78-3.91c-1.42-.57-.98 11.9-1.3 13.81-.6 3.5-2.6 8.12-4.43 11.21 3.36-10.42 1.03-20.7.52-31.28l-14.33 17.99 11.72-20.6c-9.71 16.77-27.41 17.08-44.54 20.08 4.06 1.08 24.1-2.44 26.31-1.3.19.09 1.14 3.03 2.08 3.64-5.4-2.45-11.2-2.76-16.93-1.82 5.32.78 10.15 1.68 14.59 4.43-.55-.1-1.93-.78-2.08-.26 4.14 3.34 8.63 6.4 11.2 11.2-8.44-8.5-20.7-12.6-32.56-10.16 4.74 1.69 18.24 6.1 21.1 10.17 1.82 2.6-4.91-1.98-5.21-2.09-4.9-1.78-10.17-2.66-15.37-1.82 12.57 3.13 22.32 10.74 30.21 20.85l-8.85-4.17c1.68 2.04 6.65 4.17 8.07 6 .22.27 1.24 1.75 0 1.56l-18.75-11.47 12.24 11.73c-3.1-.94-5.65-3.67-8.6-4.95-.53-.23-2.75-1.15-1.04.52l12.24 7.56-2.86-.78.52 2.09-4.43-1.83 4.43 4.43c-4.33.25-7.8-1.73-11.72-3.13-1.18-3.6.06-4.18 0-4.43-.13-.5-5.4-7.04-6.25-8.34-1.87-2.86-.42-2.97-.52-3.13-.15-.22-4.43-4.58-4.17-2.6 5.82 7.11 8.96 16.1 10.94 25.02.95 4.29-1.1 10.82 3.65 13.04l-3.13.52 1.56 3.9c-1.04.46-1.78-.17-2.08.27-1.99 2.91-.23 9.21.52 12.25-1.9-.9-2.79-2.66-2.87-4.7-2.57 1.7 1.8 5.26 3.4 6.27.28 1.23 1.9 2.99 2.07 4.95.3 3.1-.92 8.64-1.82 11.73-.61-3.13 0-7.09-.78-10.17-.85-3.33-3.81-5.16-5.21-8.08.08.24 3.33 3.35 4.17 2.87l-3.9-4.43c-.37.12-.37 1.26-.27 1.56-.03-.06-.93.2-1.04-.26-.63-2.51 1.04-6.3 1.04-8.86 0-22.37-6.58-42.42-26.83-53.97l-6-.26 9.65-.78-3.65-2.09c6.35-.66 12.73 1.63 16.67 6.78-1.67-4.87-8.16-7.5-12.76-8.6l5.73-1.56-5.47-.79c0-1.17 3.39-.04 3.38-.78 0-.26-3.74-.7-3.9-2.35l-6.52 2.87c3.88-3.74 10.01-5.64 15.37-5.47l-7.03-1.3 4.43-2.87-4.43.78 10.16-2.87h-9.38l-10.16 3.91c6.79-5.19 13.44-9.35 22.4-8.86-6.85-2.08-13.7-.05-20.31 1.56l47.14-16.42c.6.75-2.7 3.33-3.12 3.65-.5.37-2.58.83-2.87 1.04.05-.03.47-1 .52-1.04.14-.1 1.77-.3 2.09-.79-1.3-1.09-1.98.75-2.09.79-4.84 1.7-9.57 3.47-14.06 6 3.83-.2 10.22-2.9 13.54-4.96-3.76 2.65-7.1 5.98-11.72 7.3 6.46-.12 13.86-4.18 18.76-8.86.52.26.29 1.08 0 1.56-1.95 3.18-16.03 9.36-20.06 10.69 2.15 1.65 12.66-2.8 13.02-2.09-5.73 5.52-13.9 5.7-21.36 6.78 24.87 5.76 35.17-20.52 45.07-37.8-1.8 10.78-8.77 19.99-15.37 28.42l14.85-22.16c-1.04 9.1-6.6 17-11.73 24.24 2.56-.23 5.75-3.34 7.3-5.21 1.1-1.33 9.04-15.5 9.37-16.69.49-1.7-.55-4.23.27-6l.78 3.92 1.3-1.3c-.05 14.52 2.9 27.75 19.01 31.02-4-2.42-6.95-3.2-9.37-7.56.73.64 4.12 4.17 4.43 4.17 1.43-.03.16-1.68 1.56-1.57 1.27.1 3.99 2.32 5.73 2.09-1.25-.76-2.26-1.71-3.39-2.6 2.96.66 5.66 2.51 7.82 1.3.03-.83-6.8-1.49-7.82-1.83l10.94.26c-16.96-4.15-23.72-17.43-30.47-32.06 8.52 6.87 9.6 20.96 19.27 26.59 2.1 1.22 14.86 4.65 17.71 5.21 8.2 1.62 18.23-.6 24.5 5.74-3.5-.97-8.19-2.15-11.21.26 3-.82 9.46.42 10.16 3.9-1.98-2.07-4.83-2.58-7.56-1.82 2.8 1.68 6.76 2.6 8.08 6-2.59-1.46-5.42-3.2-8.6-2.35 3.43 1.19 6.91 2.42 9.38 5.22-4.8-1.6-8.68-.1-13.02 2.08 6.97-2.18 12.11-1.1 17.71 3.65-.22.69-7.14-2.24-8.08.26 3.34-.31 6.33.72 9.12 2.35l-6.51.26c5.62 1.61-.85 2.07-2.6 3.13-18 10.8-25.62 33.33-24.75 53.18" style="fill:#fcfcfe;fill-rule:nonzero"/><path d="M170.18 242.86c.05.19.35.84.52 1.57-1.58-1-5.96-4.57-3.38-6.26.07 2.02.96 3.79 2.86 4.7" style="fill:#c46d85;fill-rule:nonzero"/><path d="M237.9 236.08c0 .06-.53-.25-.52 1.05-4.63.95-5.5-4.81-9.37-6.52 3.78 1.13 5.1 2.12 8.33-1.04-3.55-1.04-6.74-1.52-9.9-3.65 3.3-.57 7.05.93 9.12-2.35-.86 5.75 1.54 2.1 2.35 3.91.17.4-.04 7.34 0 8.6" style="fill:#bf202c;fill-rule:nonzero"/><path d="M206.39 140.15c1.47 1.55.69 14.1-.52 14.07-2.07-4.64-1.37-9.59.52-14.07" style="fill:#bc1824;fill-rule:nonzero"/><path d="M165.75 183.94c2.54 1.3 6.8 2.85 8.86 4.7 1.04.93.93 3.45 3.9 4.95z" style="fill:#c02438;fill-rule:nonzero"/><path d="M178 144.32c-.06.04-.48 1-.53 1.04-3.32 2.06-9.7 4.75-13.54 4.95 4.49-2.52 9.22-4.3 14.06-6" style="fill:#b71826;fill-rule:nonzero"/><path d="M186.59 152.66c.42-.14.98.55 1.82.26.03 1.34-9.43 6.16-11.46 6.26 2.44-.52 8.3-6.07 9.64-6.52" style="fill:#b31c27;fill-rule:nonzero"/><path d="M235.04 218.88c.56 5.46-5.72 4.17-9.12 2.34 3.72.19 6.63 1.18 9.12-2.34" style="fill:#d34b5b;fill-rule:nonzero"/><path d="M234.52 211.06c.4 3.17-3.22 6.64-6.51 6 2.57-1.84 5.29-2.75 6.5-6" style="fill:#bd3441;fill-rule:nonzero"/><path d="M225.92 153.7v-.52c1.02.34 7.86 1 7.82 1.83-2.16 1.21-4.86-.64-7.82-1.3" style="fill:#b91826;fill-rule:nonzero"/><path d="M164.97 242.86c-.1-.3-.1-1.44.26-1.56l3.9 4.43c-.83.48-4.08-2.63-4.16-2.87" style="fill:#b71825;fill-rule:nonzero"/><path d="M220.71 186.55c-.14.15-.8 2.32-1.82 2.6-.7-1.27 1.21-2.02 1.82-2.6" style="fill:#a91921;fill-rule:nonzero"/><path d="M220.71 186.55c.58-.61 1.33-2.52 2.6-1.82-.28 1.02-2.45 1.68-2.6 1.82" style="fill:#aa3041;fill-rule:nonzero"/><path d="M178 144.32c.1-.04.77-1.88 2.08-.79-.32.48-1.95.68-2.09.79" style="fill:#b71826;fill-rule:nonzero"/><path d="M189.2 150.05c1.33-.4.27 1.03-.53 1.57-.67-.47.14-1.45.53-1.57" style="fill:#c12b3c;fill-rule:nonzero"/><path d="M390.29 109.38c-3.55 26.9-22.17 50.45-48.97 56.84 25.18-9.67 43.12-30.53 48.97-56.84" style="fill:#f8f9fb;fill-rule:nonzero"/><path d="M382.73 98.43h-1.04c.5-3.4.7-6.71.52-10.16-1.1 2.1-1.55 5.16-2.08 7.56h-.52c.97-4.1 1.34-8.33 1.82-12.52a44 44 0 0 1 1.3 15.12" style="fill:#ce8088;fill-rule:nonzero"/><path d="M81.62 174.56v1.56c-1.74-.85-4.5-1.2-6.26-2.34 2.09-.37 4.22.46 6.26.78" style="fill:#fcfcfc;fill-rule:nonzero"/><path d="M117.3 164.13c2.42 2.39 4.64 3.28 8.08 3.39l-4.43.26z" style="fill:#edf7f9;fill-rule:nonzero"/><path d="m117.3 169.34 7.56 2.35c-2.11 1.45-6.63-.04-7.56-2.35" style="fill:#d07681;fill-rule:nonzero"/><path d="M290.78 170.9c.15 2.64-4.88 4.31-7.03 3.92z" style="fill:#d7bdc8;fill-rule:nonzero"/><path d="m115.22 171.43 5.47 2.87c-.16.9-6.52-.78-5.47-2.87" style="fill:#d68d97;fill-rule:nonzero"/><path d="M24.05 83.83c1.36 51.05 55.28 60.83 96.38 54.23l.52 1.04c-6.26 4.2-.22 8.57-.26 9.13-.06.68-5.58 2.09 0 6.25l-3.39 2.35-.52-2.09-3.65 6.26-.52-4.7c-2.42 6.77-3.39 8.14-3.64-.51-.88 6.9-11.56 6.01-17.2 5.73-13.89-.68-33.53-6.82-44.8-15.12-.46-.34-4.94-3.22-3.65-4.17 3.7 3.45 8.86 6.44 13.81 7.56-9-4.92-17.76-11-23.96-19.3-.61-.8-3.43-3.91-2.35-4.94 4.41 7.03 17.15 17.5 25 19.8.31.1 2.1.75 1.83-.25-18.31-7.8-31.33-25.38-34.9-44.84.85-1.54-2-6.74.52-6.78-.09 8.43 2.96 18.74 9.37 24.5a60.4 60.4 0 0 1-8.6-34.15" style="fill:#fdfeff;fill-rule:nonzero"/><path d="M58.17 139.1c-4.27-1.46-6.02-2.13-9.38-5.21 3.2 1.59 6.22 3.58 9.38 5.21M58.17 139.1c.67.23 1.93.04 2.6.78-1.14.92-1.9-.42-2.6-.78M48.8 133.89c-.07-.06-1.27.03-1.57-.78.88-.97 1.48.74 1.57.78" style="fill:#e1c4c7;fill-rule:nonzero"/><path d="M70.94 154.74c.43.05 1.77-.18 1.82.26.03.33-2.35.63-1.82-.26" style="fill:#f4e8eb;fill-rule:nonzero"/><path d="M381.7 98.43h1.03c-2.1 23.7-24.42 44.4-45.84 51.88 19.19-4.72 36.76-18.5 44.02-37.28 1-.26.35 1.51.26 1.83-4.5 15.56-23.67 31.95-38.3 37.8-7.19 2.88-39.56 10.26-45.32 7.3-1.41-.73.08-4.68-1.56-5.21-.09 5.01-1.11 8.85-2.6 1.56-.86 1.54 0 2.92-2.09 3.65l-2.6-6.78v3.65l-3.9-2.87c6.03-3.27 2.12-4.46 2.07-6.25-.05-2.12 1.25-2.23 1.05-4.17-.13-1.23-3.46-3.8-3.39-5.48 35.98 4.4 85.07.1 95.08-42.23h.52c-1.93 8.66-3.78 17.02-9.38 24.24 5.57-4.73 9.86-14.29 10.94-21.64" style="fill:#fdfefe;fill-rule:nonzero"/><path d="M381.7 98.43c-1.09 7.35-5.38 16.91-10.95 21.64 5.6-7.22 7.45-15.58 9.38-24.24.53-2.4.98-5.46 2.08-7.56.17 3.45-.02 6.75-.52 10.16" style="fill:#b81823;fill-rule:nonzero"/><path d="M308.5 155.27c1.27-.07 3.1 1 4.68.52-4.7 1.49-10.31 1.77-15.36 1.3 3.08-1.44 6.84-.64 10.16-.78.4-.02.12-1.03.52-1.04" style="fill:#ead9dd;fill-rule:nonzero"/><path d="M171.48 128.15c1.67.1-1.45 2.01-1.56 2.09-9.22 6.3-20.33 8.45-30.74 12l13.8-1.31c-.24 1.05-10.3 3.62-8.07 4.43l3.91-.26-7.03 2.34 3.9.79c-4.5 2.3-9.77 3.35-14.84 3.39l1.56-1.57-8.07.26c2.72-1.36 5.28-.54 7.29-3.13-2.97-3.23-11.71-2.35-2.09-4.17l-4.68-.52 4.16-1.56-4.68-1.04 11.46-2.1c-4.26-1.4-8.77-3.35-13.29-1.82-1.55-.03.17-.84.52-1.04 6.08-3.36 14.52-5.3 20.84-1.56l-11.98 1.56c14.24 2.74 27.47 1.66 39.6-6.78" style="fill:#fcfbfc;fill-rule:nonzero"/><path d="M139.7 147.97h.52c1.03-.09 1.03.6 0 .52z" style="fill:#bc2e42;fill-rule:nonzero"/><path d="M169.66 206.36c.22.68 1.02 1.48 1.04 1.57.35 1.26.74 2.22 1.04 3.65.3 1.41.42 3.22.52 4.7 0 .04-1.04-.17-1.04.25.06 5.6 8.9 6.18 6.51.78 4.3.08 8.05-2.31 12.25-2.6.26-.02 4.49.73 5.2 1.04.46.2 1.53.42 2.09.52.28.54.57.93 1.04 1.3-.45.53-1.92.2-2.6.27-4.6.4-9.59-1.06-13.03 3.38 2.17-.33 4.06-1.36 6.25-1.82l-10.68 8.34c-2.19.68-4.4 1.7-6.5 2.6l-1.57-3.9 3.13-.52c-4.75-2.22-2.7-8.75-3.65-13.04-1.98-8.91-5.12-17.9-10.94-25.03-.26-1.97 4.02 2.39 4.17 2.61.1.16-1.35.27.52 3.13.85 1.3 6.12 7.84 6.25 8.34.06.25-1.18.84 0 4.43" style="fill:#ba1c31;fill-rule:nonzero"/><path d="M195.7 217.84v.52c-2.53.24-4.3.52-6.77 1.04-2.19.46-4.08 1.49-6.25 1.82 3.44-4.44 8.43-2.98 13.03-3.39" style="fill:#f9fbfa;fill-rule:nonzero"/><path d="m171.48 221.48 6.51 1.83c-.01.46-6.75.93-6.5-1.83" style="fill:#e2d0d3;fill-rule:nonzero"/><path d="M197.27 216.27c-.56-.1-1.63-.33-2.08-.52-.42-2.64 1.3-.94 2.08.52" style="fill:#f9fbfc;fill-rule:nonzero"/><path d="M172.26 216.27c.3-.28 2.93.87 2.6 1.83-.24.61-2.95-1.5-2.6-1.83" style="fill:#bd1c35;fill-rule:nonzero"/><path d="m171.74 211.58 2.6 1.82c-.43 1.02-2.93-.51-2.6-1.82" style="fill:#b02b3d;fill-rule:nonzero"/><path d="M278.8 216.27c9.89-1.66 5.94 7.14 14.33 7.56l-5.21.52 3.12 2.09c-3.55-.94-1.86 1.8-2.34 1.82-.58.02-6.3-6.2-9.38-6.78-5.26-.99-8.51.4-11.98 4.18.72-3.08 8.87-8.95 11.46-9.39" style="fill:#fcfcfd;fill-rule:nonzero"/><path d="M278.28 219.4c.83-.06 7.3 1.5 7.03 2.34l-8.6-1.3c-.33-.37 1.48-1.03 1.57-1.04" style="fill:#b61a2b;fill-rule:nonzero"/><path d="M275.68 219.92c1 .52-.4 1.67-1.3.78.48-.07 1.23-.81 1.3-.78" style="fill:#b01c2e;fill-rule:nonzero"/><path d="M295.21 187.6c-.44.66-1.12 2.29-2.08 2.08v-1.57c.84-1.07 1.13-.73 2.08-.52" style="fill:#b71825;fill-rule:nonzero"/><path d="M293.13 189.68c-1.14-.25-.48-.95 0-1.57z" style="fill:#e2e7eb;fill-rule:nonzero"/><path d="M126.42 155.27c-.08.02-.66 1.18-1.56.26z" style="fill:#b61f34;fill-rule:nonzero"/><path d="M110.53 186.03c1.57-.64 4.1 11.6 2.6 13.03-1.2-4.15-2.53-8.4-5.99-11.2 2.32-.85 4.58 5.55 4.95 5.47z" style="fill:#d7a0b2;fill-rule:nonzero"/><path d="M112.61 193.85c.26-.01.35.46.26.78-.3 1.94-.92-.74-.26-.78" style="fill:#c62d3f;fill-rule:nonzero"/><path d="M135.8 241.3c-3.46 5.76-15.38-1.67-11.47-3.13 3.5 4.4 6.12 4.19 11.47 3.13" style="fill:#b7181f;fill-rule:nonzero"/><path d="M258.74 310.65c-.81-.96-.84-.43-1.56-2.1.04.13.93.57 1.56 2.1" style="fill:#bc1823;fill-rule:nonzero"/><path d="M257.18 307.52c.04.33-.08.8 0 1.04-.03-.06-.97-.41-1.04-.78z" style="fill:#bc1a25;fill-rule:nonzero"/><path d="M191.8 321.6c4.86-.58 6.97 1.36 9.9 1.56 3.65.24 6.87-2.12 11.98-1.57 4.13.45 9.18 4.2 12.5 4.7 10.12 1.53 14.1-6.82 23.7 5.47 7.48 9.56 16.9 49.54 13.03 59.96-1.43 3.86-6.56 7.45-10.68 6.52-2.79-.63-3.13-4.63-5.2-5.21-2.93-.82-10.81.37-14.6 0-25.54-2.56-35.82-2.77-61.47 0-3.17.34-10.14-.72-12.5 0-2.89.87-1.95 7.73-10.42 4.69-4.51-1.62-6.55-9-6.51-13.3.1-12.71 7.34-53.37 20.58-58.66 6.67-2.66 11.27 1.55 17.7.53 2.86-.46 8.33-4.26 11.99-4.7" style="fill:#fdfdfe;fill-rule:nonzero"/><path d="M213.42 330.46a52 52 0 0 0-11.2 7.82c-.75-2.4-9.3-7.7-4.43-6.52l-4.69-2.6c3.13-.56 5.15 1.96 7.04 3.9l-1.57-5.2 4.17 6.25 4.17-6.26-2.09 5.22c2.85-.88 5.64-2.14 8.6-2.61" style="fill:#b41c32;fill-rule:nonzero"/><path d="M149.08 365.91c-.6 3.49 3.1 3.28 2.34 6.52-.22.97-2.67 3.42-3.38 4.43l2.86-4.95c-.75-2.57-.74.12-2.08-.52z" style="fill:#b63645;fill-rule:nonzero"/><path d="M202.48 358.1c.05 1.1-2.43.78-3.13.51-1.09-.42-3.05-1.68-2.86-3.13z" style="fill:#de9db4;fill-rule:nonzero"/><path d="M256.4 366.44c2.78 5.23-3.18 5.74-1.82 2.86.22-.47 2.05 1.16 1.82-2.87" style="fill:#b43e54;fill-rule:nonzero"/><path d="M211.08 328.9c.23-.06 2.94-.34 2.6.52l-6 1.82c.14-.74 3-2.26 3.4-2.35" style="fill:#b82d3f;fill-rule:nonzero"/><path d="M254.32 371.13c.78 1.35 2.77 3.02 2.6 4.7-1.3-.8-2.83-3.11-2.6-4.7" style="fill:#a82336;fill-rule:nonzero"/><path d="M243.38 373.74c2.47.25-1.72 4.42-1.3 1.3a9 9 0 0 1 1.3-1.3" style="fill:#ae3541;fill-rule:nonzero"/><path d="M157.94 384.68c.48-.16 2.04-.24 1.82.79l-2.34.26c-.51-.26.35-.99.52-1.05" style="fill:#9d1928;fill-rule:nonzero"/><path d="M162.63 374.26c.8-.07 1.2.95 1.04 1.56-1.7.44-2.17-1.47-1.04-1.56" style="fill:#a91829;fill-rule:nonzero"/><path d="M246.5 384.68c1.3-.48 1.83 1.06 1.04 1.57-.46.3-1.82-.83-1.04-1.57" style="fill:#a21916;fill-rule:nonzero"/><path d="M161.58 378.43c1.3-.18.57 1.03-.52 1.04-.52-.27.43-1.03.52-1.04" style="fill:#c48f94;fill-rule:nonzero"/><path d="M213.42 330.46c.08-.01.61-1.19 1.56-.26-.34.54-1.26.1-1.56.26" style="fill:#b41c32;fill-rule:nonzero"/><path d="M201.44 355.49h-.52c-.02-.06-1.11-.18-.26-1.05.42.15.72 1.01.78 1.05" style="fill:#c6969d;fill-rule:nonzero"/><path d="M199.35 358.61c.7.27 3.18.59 3.13-.52-.78-1.04-1.1-1.31-1.56-2.6h.52c1.85 1.1 2.65 3.1 2.86 3.12.6.05 3.4-2.27 4.43-.78-2.08.44-4.4 2.85-4.43 4.95 2.38-3.28 6.1-3.09 9.12-5.47-1.72 3.83-8.32 6.38-8.07 10.69l8.85-9.9c2.7 2.65 1.7-.66 1.83-.79 2.07-2.12 4.85-5.29 7.03-7.04 4.41-3.56 10.36-4.81 13.02-9.38-2.9 10.47-20.28 9.64-17.97 24.76 1.31 8.62 12.5 8.17 14.33 15.38 1.33-2.7 4.07-6.95 4.94-9.64 1.85-5.67-.21-9.5 5.74-14.6 2.83 2.1-.34 6.11-1.05 8.34-.21.68.72.87.52 1.57-.19.68-2.42-.3-.52 2.34v.52l2.09 1.3c-4.93.3-3.35 5.64-6.25 7.3l3.64.53c-4.48.22-4.77 3.9-6.25 6.78 5.3 2.61 11.57.31 16.41 3.9l-1.04-3.64c2.96 2.38 5.58-.12 6.77 5.21 1.32-4.73 3.37-.55 1.83 2.87-.93 2.06-5.43 4.04-7.56 3.39-1.33-.4-2.17-3.55-3.13-4.17-3.07-2.02-9.78-.56-13.54-1.05-28.27-3.63-38.35-3.72-66.68 0-2.72.36-6.98-.55-9.38 0-2.96.68-3.55 4.75-5.21 5.22-4.78 1.36-9.75-6-7.82-7.3.73-.5.9 1.14 1.05 1.04 2.37-1.6 3.5-4.58 7.3-5.21l1.3.78-.79 2.34c4.22-3.45 10.64-.17 14.85-3.38 0-.89-2.85-.33-.26-2.35-1.12-.15-2.63.22-3.65 0-2.21-.47 2.23-1.63 0-2.09-.11-.02-1.46 1.21-2.34.26l4.17-1.04-3.65-1.56c2.68-.54 3.26.5 2.6-2.6-.77-3.7-5.15-4.84-5.2-5.22-.19-1.24 1.78-.47 2.08-1.57.03-.12-1.07-.91-1.04-1.04.08-.42 1.03-.12 1.04-.52.09-4.14-3.7-5.42-5.21-8.34-3.67-7.12-.98-29.03 9.12-27.9 1.7.2 5.27 3.6 7.29 4.17 5.23 1.49 14.3 1.35 19.8 2.6 1.83.43 6.34 3.57 7.29 3.66 3.4.33 6.73-3.7 8.86-4.17 2.2-.5 6.64.71 7.8.52 2.08-.34 11.62-2.12 13.03-2.6 1.81-.63 4.87-3.97 6.78-4.18 9.85-1.1 13.89 24.15 7.29 29.72-.83-4.99 2.75-10.06 0-15.64-1.34 6.6-3.9 12.58-9.38 16.68-.92.7-8.82 3.79-7.3 4.7h6.26c1.89 2.43-12.87 4.27-14.33-3.91-2.76-15.53 23.53-12.16 15.37-27.9l-16.15 7.3c-6.12-5.85-14.2 3.17-18.23 2.6-1.54-.2-4.99-3.78-7.3-4.16-3.03-.51-6.41.5-9.37 1.04l-15.63-6.78c-6.7 13.07 9.28 12.43 13.8 20.07 1.63 2.76 2.55 7 1.05 9.91-3.5 6.79-15.11 2.3-15.63 3.65-.53 4.24 2.98 7.4 4.43 11.21.04-4.36 1.83-1.4 2.08-1.56 2-1.34-.23-5.04 3.13-2.09 8.4-5.87 12.64-11.96 5.99-21.64-4.48-6.5-14.12-6.34-14.85-13.81l18.23 14.6c1.26.58 1.48-1.09 1.57-1.05 4.68 2.43 9.67 4.9 13.02 8.87z" style="fill:#b51927;fill-rule:nonzero"/><path d="M242.07 369.56v-.52c.1.13 1.25-.26 1.57.26z" style="fill:#cf8299;fill-rule:nonzero"/><path d="M160.02 342.97c.13 10.18 5.19 16.2 13.02 21.9-3.88-2.43-8.93-3.9-10.94-8.34-1.15 1.09.71 4.6-1.82 2.35-1.86-5.95-1.88-10.18-.26-15.9" style="fill:#f7f5f7;fill-rule:nonzero"/><path d="m197.8 385.2 1.03-.25-.78-.79za6 6 0 0 1-1.82-1.05l.52 2.09c-3.23-3.35-4.6 1.5-6-1.04 2.09 1.53 2.1-2.53.27-3.65 2.47 1.85 5.93 3.95 6.25 0l3.9 4.43c-1.08.72-2.45-.56-3.12-.78" style="fill:#c96a76;fill-rule:nonzero"/><path d="M210.03 373.21c.34-.08 1.16-.1 1.3.26l-5.72 5.74 6.77-2.6-7.56 5.47c-2.19-1.93 4.04-8.57 5.21-8.87" style="fill:#ca979d;fill-rule:nonzero"/><path d="M213.16 381.03c.45.01 1.19-.15 1.3.27l-5.73 3.65c1.66 1.33 2.83-.17 3.9-1.3 1.26 2.89-5.62 3.15-5.98 1.82-.1-.38 5.73-4.45 6.5-4.44" style="fill:#c56978;fill-rule:nonzero"/><path d="m200.4 382.08-.53.52c-2.04-1.7-3.89-3.58-5.99-5.22 2.81.3 4.92 2.54 6.52 4.7" style="fill:#cea1ab;fill-rule:nonzero"/><path d="M210.03 369.56c.37-.07 1.16-.11 1.3.26l-7.03 7.04c-.18-2 4.17-7 5.73-7.3" style="fill:#d1a3ab;fill-rule:nonzero"/><path d="M209.51 380c.92 1.74-4.05 4.32-5.47 4.94z" style="fill:#cd979e;fill-rule:nonzero"/><path d="m199.88 377.9-.53.53c-1.29-1.14-4.19-2.91-4.42-4.7a18 18 0 0 1 4.95 4.18" style="fill:#d0a9b0;fill-rule:nonzero"/><path d="m209 366.44-4.7 5.73c.4-2.78 3.02-3.85 4.7-5.73" style="fill:#d29da3;fill-rule:nonzero"/><path d="M197.53 362.26c.3-.15 4.3 4.62 3.65 5.74-.17-.56-5.1-5.01-3.65-5.74" style="fill:#d4c7cf;fill-rule:nonzero"/><path d="m196.75 368 .52-.52c1.08.9 3.63 2.46 3.39 4.17l-2.6-1.04.77-.79c-.53-.8-1.49-1.1-2.08-1.82" style="fill:#d3b0b9;fill-rule:nonzero"/><path d="M191.28 377.9c.64 1.68 4.64 2.74 4.17 4.7-1.39-.78-4.26-2.85-4.17-4.7" style="fill:#c96a76;fill-rule:nonzero"/><path d="m198.31 373.21.52-.52c1.48.83 3.1 2.88 2.87 4.7-1.02-1.5-2.24-2.8-3.39-4.18" style="fill:#d4aab2;fill-rule:nonzero"/><path d="m199.35 378.43.53-.52c.65.73 2.48 1.52 1.82 3.12-.96-.62-1.55-1.9-2.35-2.6" style="fill:#dfedf0;fill-rule:nonzero"/><path d="M216.29 384.68c.63 1.55-2.3 2.12-2.87.79z" style="fill:#bf485c;fill-rule:nonzero"/><path d="m176.17 386.77-1.56 3.13c-.93-1.38.75-2.18 1.56-3.13" style="fill:#d5dde0;fill-rule:nonzero"/><path d="M193.1 358.1c-.3-.2-2.67.07-2.6-1.31 1-.6 1.95.83 2.6 1.3" style="fill:#e9f5f6;fill-rule:nonzero"/><path d="M175.65 380c1.11-.23 2.22.73 2.34 1.82-.7.1-2-1.24-2.34-1.83" style="fill:#c89aa7;fill-rule:nonzero"/><path d="M255.36 388.33c.86.58 1.11 1.66.52 2.61-.73-.51-.7-1.81-.52-2.6" style="fill:#cc849e;fill-rule:nonzero"/><path d="M196.23 367.48c-.42-.45-2.1-1.14-1.82-2.09 1.42-.2 1.7 2.01 1.82 2.09" style="fill:#c3838a;fill-rule:nonzero"/><path d="m190.5 385.2-1.3-2.08c1.6-.14 1.2 2.01 1.3 2.08" style="fill:#c96a76;fill-rule:nonzero"/><path d="m198.83 372.7-.52.51c-.3-.35-.67-.53-1.04-1.04v-.52c.42.2 1.43-.07 1.56 1.04" style="fill:#e9f3ef;fill-rule:nonzero"/><path d="M212.64 378.95c1.26.48-1.37 2.48-1.82 1.3a8 8 0 0 1 1.82-1.3" style="fill:#cd979e;fill-rule:nonzero"/><path d="M230.35 379.47c.92.22-.8 2.36-1.56 2.09-.32-.79 1.18-1.47 1.56-2.09" style="fill:#d5a1a6;fill-rule:nonzero"/><path d="M193.1 358.1c.71.41 1.57.57 2.09 1.3-1.44.94-1.99-1.24-2.09-1.3" style="fill:#e9f5f6;fill-rule:nonzero"/><path d="M214.2 360.18c.43.48.43 1.58 0 2.08-.48-.98-1.1-1.37 0-2.08" style="fill:#bd4151;fill-rule:nonzero"/><path d="M197.27 371.65v.52c-.1-.14-1.35-.5-1.04-1.3.58-.6.98.75 1.04.78" style="fill:#d4aab2;fill-rule:nonzero"/><path d="M168.36 366.44c.05-.01 1.05.76.52 1.04-1.34.7-1.5-.93-.52-1.05" style="fill:#f2f9fa;fill-rule:nonzero"/><path d="M183.99 386.25c.43.05 1.77-.19 1.82.26.03.32-2.35.62-1.82-.26" style="fill:#c3768a;fill-rule:nonzero"/><path d="M200.4 383.12h.52c.02.06.88.35 1.04.78l-.78.26c-.42-.14-.73-1-.78-1.04" style="fill:#cea1ab;fill-rule:nonzero"/><path d="M175.13 383.12c.79-.29 1.14.77.52 1.04-.76.34-1.15-.81-.52-1.04" style="fill:#e6ecec;fill-rule:nonzero"/><path d="M230.87 382.6c1.3-.18.57 1.03-.52 1.04-.53-.27.43-1.03.52-1.04" style="fill:#e2d7cf;fill-rule:nonzero"/><path d="M200.92 383.12h-.52c-.49-.34-.5-.5-.52-.52l.52-.52c.48.65.33.66.52 1.04" style="fill:#e1eaed;fill-rule:nonzero"/><path d="M215.24 381.56c.44.04 1.78-.2 1.83.26.03.32-2.35.62-1.83-.26" style="fill:#cc9ba5;fill-rule:nonzero"/><path d="M187.11 376.34h.52c1.03-.08 1.03.6 0 .52z" style="fill:#b23244;fill-rule:nonzero"/><path d="m194.4 361.22.79.26-.26.78-.26-.26z" style="fill:#ca98a5;fill-rule:nonzero"/><path d="m197.27 367.48-.52.52-.52-.52c.36.24.18-.72 1.04 0" style="fill:#e3f0e4;fill-rule:nonzero"/><path d="m197.8 385.2.25-1.04.78.78z" style="fill:#b61926;fill-rule:nonzero"/><path d="M134.84 528.33q-.3.18-.54.6a4 4 0 0 0-.33.63q-.03.07-.2.12l-.23.06q-.33 0-.32-.33 0-.1.28-.57l2.54-4.2q.42-.67.6-.88.18-.18.43-.05.25.12.14.3a1 1 0 0 0-.1.18q-.04.11-.04.36 0 .33.56.81.55.5 1.42.94.86.45 1.9.77 1.05.33 2.06.33 1.2 0 1.89-.69.7-.67.7-1.8 0-1.26-.8-1.87a6 6 0 0 0-1.95-.94q-1.17-.32-2.56-.52-1.38-.2-2.56-.6a5 5 0 0 1-1.96-1.14q-.8-.75-.79-2.2 0-1.11.77-2.27a8 8 0 0 1 2.06-2.05q1.28-.9 2.93-1.48 1.66-.57 3.46-.57.54 0 1.26.1a19 19 0 0 1 2.71.6q.6.16.89.27.06 0-.04.29-.1.31-.54.99-.43.66-.95 1.31-.53.65-.98 1.15t-.63.5h-.21q-.18 0-.25-.07.03-.18.03-.46 0-1.26-1.13-1.98a6 6 0 0 0-3.3-.72q-1.04 0-1.7.6-.67.62-.67 1.48 0 1.41.8 2.1.78.68 1.97 1.02t2.56.52 2.55.56 1.98 1.13q.8.75.8 2.27 0 .69-.3 1.33-.28.64-.75 1.23-.47.57-1.04 1.06-.58.48-1.16.85a17 17 0 0 1-2.7 1.44q-.78.32-1.62.52-.82.2-1.65.2-.4 0-1.26-.17a33 33 0 0 1-3.31-.79q-.69-.2-.72-.27M168.14 525.02q-.4.43-1.23 1.19a15 15 0 0 1-4.6 2.8q-1.44.54-3.06.54-1.49 0-2.88-.45a8 8 0 0 1-2.52-1.36 7 7 0 0 1-1.79-2.34 8 8 0 0 1-.66-3.4q0-1.63.21-2.8.22-1.17.58-2.05t.8-1.5q.45-.64.93-1.14a8 8 0 0 1 1.4-1.23q.83-.57 1.78-1.04t2.02-.74q1.05-.27 2.14-.27a6 6 0 0 1 3.04.65q1.1.65 1.1 1.8 0 .72-.43 1.33.36-.11.92-.36l2.16-1q.45-.22.6-.33.07-.08.15-.06.1.03.1.13 0 .47-.19.77-.18.3-.43.5-.57.35-1.65.9-1.08.53-2.4 1.12-1.3.6-2.72 1.2a292 292 0 0 0-4.8 2.08q-.92.41-1.24.6a5.4 5.4 0 0 0 1.83 4.13q.87.8 2.07 1.25t2.65.45a9 9 0 0 0 4.1-.89 10 10 0 0 0 1.59-.88q.15 0 .28.13.15.12.15.27m-12.67-5.5 1.38-.53q.78-.3 1.51-.67.74-.36 1.35-.68t.94-.58q.65-.46.65-1.58a2.8 2.8 0 0 0-.65-1.75 3 3 0 0 0-.8-.6 2.14 2.14 0 0 0-2.12.1q-.57.35-1.08 1.11-.5.78-.84 2.06a12 12 0 0 0-.35 3.11" style="fill:#fdfdfe;fill-rule:nonzero"/><path d="M173.5 522.97q0 .75.04 1.45.03.7.25 1.21.21.5.65.81.44.3 1.22.3.4 0 .9-.08a7 7 0 0 0 2.16-.74q.1-.1.15 0t.01.27q0 .15-.09.32-.06.17-.18.24l-1.26.64q-.9.48-2.12.98-1.16.5-2.25.84-1.1.34-1.82.34-.82 0-1.3-.5a1.8 1.8 0 0 1-.46-1.26 4 4 0 0 1 .07-.9l.3-3.46q.1-1.19.17-2.39t.07-2.07v-1.26q0-.94-.1-1.66a3 3 0 0 0-.37-1.11q-.18-.25-.45-.42a1.3 1.3 0 0 0-1.1-.07 1 1 0 0 1-.32.1q-.08 0-.23-.22-.16-.23.01-.33.25-.17 1.05-.57l1.73-.87a27 27 0 0 1 1.94-.88 4 4 0 0 1 1.33-.38q.4 0 .54.24t.15.52v.14q0 .37-.11 1.15a76 76 0 0 0-.47 4.61q-.1 1.51-.1 3.28zm-1.44-18.72q.18.03.6.4a11 11 0 0 1 1.6 1.72q.32.43.32.58 0 .18-.43.54a13 13 0 0 1-2.07 1.4q-.53.3-.74.29-.1 0-.52-.34a12 12 0 0 1-1.62-1.62q-.34-.42-.34-.56 0-.17.46-.56l1.03-.8a12 12 0 0 1 1.71-1.05M194.67 524.23q.07-.08.13.01.05.1.07.26 0 .15-.02.34a.6.6 0 0 1-.14.29q-.72.67-1.8 1.44a27 27 0 0 1-3.14 1.87 15 15 0 0 1-2.72 1.02q-.74.2-1.38.2-1.3 0-2.45-.5a6.4 6.4 0 0 1-3.36-3.5 7 7 0 0 1-.5-2.66q0-1.55.44-2.91a16 16 0 0 1 2.05-4.27q.51-.75.69-1.1a62 62 0 0 0-2.3-.07q-1.16 0-1.95.02-.8.02-1.4.16-.3.07-.54.29-.26.21-.44.32l-.2-.2a.4.4 0 0 1-.12-.27q0-.06.04-.1 0-.04.46-.42l1.17-.9 1.55-1.15a65 65 0 0 1 3.7-2.54.5.5 0 0 1 .42.08q.22.14.15.21l-.33.27q-.21.2-.14.34.4.33 1.37.58t2.2.41a41 41 0 0 0 4.85.35q1.55 0 2.49-.1a12 12 0 0 0 2.3-.44q.04 0 .15.1t.1.25q0 .07-.52.36a34 34 0 0 0-1.83 1.08 12 12 0 0 1-2.07 1.05q-.58.22-1.12.25-.54.07-1.26.1a56 56 0 0 1-3.12.1l-1.49.02-.34.6q-.23.4-.45 1.05t-.4 1.48a8.5 8.5 0 0 0 .27 4.52q.45 1.24 1.26 2.14a5.7 5.7 0 0 0 4.34 1.9q.76 0 1.46-.17a8 8 0 0 0 2.5-1.1q.54-.34.94-.67zM206.37 528.12q.15-.59.3-2.11.16-1.53.3-3.65a152 152 0 0 0 .2-12.3 5 5 0 0 0-.3-1.6l-1.24.52q-.81.35-1.38.63-.15 0-.31-.23a1 1 0 0 1-.16-.49q0-.1.03-.21l1.8-.56a64 64 0 0 0 4.6-1.6 9 9 0 0 0 1.74-.87q0 .07.05.1.06 0 .06.15-.18.3-.36 1.23-.18.94-.3 2.23-.14 1.3-.22 2.84a135 135 0 0 0-.24 5.98 91 91 0 0 0 .06 6.44q.05.9.16 1.64.1.75.29 1.2.06.27.36.46a4 4 0 0 0 1.47.6q.43.1.76.1.15 0 .21.13.08.12.08.2 0 .31-.26.32a39 39 0 0 1-3.43.01l-2.72-.05a39 39 0 0 0-3.5.18q-.32 0-.32-.29 0-.21.1-.29a1 1 0 0 1 .3-.1q.57-.07 1.2-.24.63-.15.67-.38M219.8 531.14q-.33 0-.7-.32-.39-.33-.72-.78-.35-.45-.62-.93-.27-.5-.37-.85-.08-.18.01-.3.09-.14.27-.06.33.18 1 .29t1.27.1a7.6 7.6 0 0 0 3.39-.77 9.4 9.4 0 0 0 3.87-3.47q.48-.72.84-1.64t.6-2.1q.22-1.2.3-2.74a10 10 0 0 1-4.88 3.3q-.94.26-1.89.26a7 7 0 0 1-2.25-.4 7 7 0 0 1-2.14-1.17 7 7 0 0 1-1.62-1.92 5.3 5.3 0 0 1-.65-2.67 8 8 0 0 1 1.98-5.47 9 9 0 0 1 1.97-1.69 14 14 0 0 1 4.26-1.75q.97-.19 1.62-.23h.47q1.62 0 2.97.36t2.32 1.22a6 6 0 0 1 1.53 2.36q.56 1.5.56 3.76a17 17 0 0 1-.9 5.35 14 14 0 0 1-2.49 4.34q-.86 1.05-2.23 2.4-1.36 1.35-2.8 2.58-1.45 1.25-2.78 2.1a4.4 4.4 0 0 1-2.12.84zm9.36-16.63q0-3.6-1.43-5.53a4.4 4.4 0 0 0-3.72-1.92q-.83 0-1.64.43t-1.44 1.24-1 1.96a8 8 0 0 0-.39 2.6q0 1.21.42 2.2a5.3 5.3 0 0 0 2.79 2.83 5 5 0 0 0 3.96-.01q.82-.42 1.37-1.03.54-.6.8-1.37.28-.75.28-1.4M244.03 515.55q1.11 0 2.34.27a7 7 0 0 1 2.23.92 5 5 0 0 1 1.65 1.76q.66 1.13.65 2.85 0 1.08-.43 2.03a8 8 0 0 1-1.12 1.77q-.68.81-1.56 1.5a17 17 0 0 1-4.92 2.7q-1.5.53-2.8.53-1.95 0-3.08-.32-1.14-.33-1.14-.83 0-.47.06-1.06a35 35 0 0 1 .27-2.25l.1-.83q.04-.33.17-.42t.25-.05.23.18q.12.15.11.29 0 .54.4 1.08.4.55 1.13 1 .75.48 1.78.76 1.05.3 2.34.29a3.3 3.3 0 0 0 2.78-1.4q.46-.66.72-1.53.24-.89.28-1.9 0-1.33-.43-2.42a6 6 0 0 0-1.17-1.9 5 5 0 0 0-1.74-1.2 5.7 5.7 0 0 0-3.64-.22 16 16 0 0 1-1.19.2q-.47 0-.47-.83 0-.14.11-.2l.18-.12q1.04 0 2.18-.1a6 6 0 0 0 2.07-.51q.46-.22.88-.7.42-.5.72-1.1t.5-1.33q.2-.72.2-1.44 0-1.8-.84-2.87a2.9 2.9 0 0 0-2.36-1.06q-.75 0-1.48.33a4.7 4.7 0 0 0-2.21 2.05q-.34.64-.34 1.3a.5.5 0 0 1-.24.32q-.2.14-.37-.04a4 4 0 0 1-.72-.8 2.6 2.6 0 0 1-.47-1.61q0-.5.56-1 .56-.51 1.58-.93 1.03-.41 2.5-.66 1.48-.25 3.28-.25.9 0 1.82.2.9.2 1.65.66t1.19 1.24q.45.78.45 1.9 0 1-.43 1.85a6 6 0 0 1-1.12 1.54 10 10 0 0 1-1.5 1.26q-.8.57-1.6.96zM268.22 529.95a7 7 0 0 0-1.2-.2l-1.93-.18a218 218 0 0 0-5.03-.32 218 218 0 0 0-4.7-.13 25 25 0 0 0-3.81.3l-.15-.06q-.1-.06-.1-.13a1 1 0 0 0-.06-.25l-.07-.27q-.02-.12.1-.27.09-.15.42-.32l2.16-1.66q1.25-.97 2.6-2.14a82 82 0 0 0 2.66-2.45q1.33-1.28 2.37-2.6 1.04-1.3 1.7-2.58a6 6 0 0 0 .68-2.43q0-1.23-.3-2.38a6 6 0 0 0-.92-2.03 5 5 0 0 0-1.52-1.4q-.9-.54-2.08-.53-1.05 0-1.91.47a5.7 5.7 0 0 0-2.49 2.66 4 4 0 0 0-.36 1.51q0 .18-.03.27-.04.1-.22.1t-.45-.2a3 3 0 0 1-.5-.5q-.24-.31-.42-.67a2 2 0 0 1-.18-.72q0-1.05.96-1.79a17 17 0 0 1 2.79-1.63q1.54-.72 3.24-1.2 1.69-.46 2.99-.46a5.1 5.1 0 0 1 3.87 1.73q.73.83 1.15 2 .4 1.17.41 2.6 0 1.3-.63 2.63a15 15 0 0 1-1.65 2.69 26 26 0 0 1-2.33 2.64q-1.29 1.3-2.64 2.47-1.35 1.16-2.61 2.2l-2.23 1.81q.36.15 1.8.36 1.45.22 3.7.22 1.41 0 2.7-.04 1.3-.03 2.38-.27a5 5 0 0 0 1.87-.8q.8-.59 1.23-1.66l.14-.08a.3.3 0 0 1 .22.02q.1.05.18.2.06.15 0 .4-.15.36-.3.91l-.26 1.17-.27 1.23q-.15.6-.29 1.04-.18.72-.68.72M134.37 33.57q-.48-.12-1.07-.19-.59-.06-1.24-.1a49 49 0 0 0-2.49-.08h-1.07q-.24 0-.41.04-.18.04-.17.1a167 167 0 0 0 .08 4.67l.12 2.29q.08 1.05.21 1.5.07.3.59.42a5 5 0 0 0 1.74.11l.67-.02q.38 0 .59.18t.2.43q0 .3-.05.5-.05.22-.74.22-.27 0-.88-.03l-1.3-.07a15 15 0 0 0-2.82.14 27 27 0 0 0-4.76 1.44q-.97.4-1.63.77-.65.4-.93.7-.14.2-.2.19h-.18q-.06 0-.34-.2a.6.6 0 0 1-.28-.52q0-.18.57-.53.57-.33 1.36-.72a27 27 0 0 1 3.14-1.24q.18-.25.3-1.42t.2-3.42q.08-2.25.14-5.63.05-3.39.09-8.1a104 104 0 0 0-.14-5.17q-.08-1.17-.2-2.03-.14-.87-.35-1.23-.18-.25-.64-.34a6 6 0 0 0-1.09-.09h-1.78q-.22 0-.46-.05t-.4-.17a.3.3 0 0 1-.15-.28q0-.4.1-.56t.93-.16q.34 0 .87.03.52.04 1.05.06t1.07.05.95.04q1.1 0 2.74-.22 1.65-.21 3.37-.29a178 178 0 0 1 5.09-.09q1.16 0 2-.03a7 7 0 0 0 1.16-.1q.3-1 .69-1.74.37-.74.79-.77.18 0 .47.12.3.13.29.34-.1.12-.17.22-.14.21-.14.32-.41.76-.74 1.95a27 27 0 0 0-.88 4.9 9 9 0 0 0 0 1.97q-.1.54-.42.54-.55 0-.67-.2a.5.5 0 0 1-.05-.4q.06-.3.1-.75.03-.45.04-.73a2.2 2.2 0 0 0-.56-1.5 4 4 0 0 0-1.48-1.04 9 9 0 0 0-2.2-.63 16 16 0 0 0-3.68-.2q-.65.02-.95.3-.08.3-.14 1.23-.08.93-.12 2.21a158 158 0 0 0-.14 5.57l-.05 4.14 1.33.03h1.26q2.07.05 3.64-.09 1.56-.12 2.08-.3.32-.12.5-.3.19-.21.32-.42.12-.22.24-.38t.26-.16q.17 0 .34.18t.1.32q-.2.4-.37 1.1-.18.7-.3 1.55a37 37 0 0 0-.2 1.74 18 18 0 0 0-.07 1.98l.01.33q0 .1-.15.16t-.31.05-.3-.03q-.13-.05-.13-.15 0-.21-.04-.52-.03-.3-.15-.6a1.9 1.9 0 0 0-1.1-1zM152.25 37.1q.2.13.2.35 0 .3-.79.76a32 32 0 0 1-6.07 2.8q-.52.2-.94.19-.47 0-1.19-.24a6 6 0 0 1-1.88-1q-.24-.17-.24-.35 0-.14.09-.27a2 2 0 0 0 .22-.6q.03-.17.04-.35.1-.9.22-2.61t.19-3.78q.08-2.07.12-4.28a175 175 0 0 0-.05-10.21 6 6 0 0 0-.28-1.57 2 2 0 0 0-.38-.55 1 1 0 0 0-.46-.27 3 3 0 0 0-.73-.1q-.12 0-.12-.07 0-1.18.97-1.18l1.7.01q.98.02 1.64.02.42 0 .88-.05l1.75-.24q.37-.07.55-.14.15-.03.22.1.1.15.1.37a1 1 0 0 1-.06.4q-.08.17-.23.2-.2.05-.36.05t-.53.14q-.18.07-.31.45-.15.38-.25 1.19t-.2 2.12q-.1 1.32-.2 3.3a95 95 0 0 0-.16 3.22l-.1 3.18a135 135 0 0 0-.08 7.26q.02 1.05.2 1.67.15.59.89 1.08.72.5 1.52.5.62 0 1.28-.17a8 8 0 0 0 2.19-.94q.43-.25.64-.4Z" style="fill:#fdfdfe;fill-rule:nonzero"/><path d="M166.09 36.55q-.39.44-1.18 1.2-.78.75-1.91 1.5t-2.5 1.3q-1.38.54-2.94.54-1.41 0-2.76-.45t-2.41-1.37a6.6 6.6 0 0 1-1.71-2.34 8 8 0 0 1-.64-3.4q0-1.62.2-2.8.22-1.16.56-2.04.34-.9.78-1.52.43-.63.88-1.13.54-.65 1.34-1.22.8-.58 1.71-1.05a10 10 0 0 1 1.93-.74 8 8 0 0 1 2.06-.27q1.86 0 2.91.65 1.06.65 1.06 1.8 0 .72-.42 1.33.35-.1.88-.36l2.07-1q.44-.23.57-.33.07-.07.16-.05t.08.12q0 .47-.17.78-.17.3-.41.49-.55.36-1.6.9-1.03.54-2.29 1.13-1.25.6-2.6 1.19a281 281 0 0 0-4.61 2.09q-.88.4-1.2.59a5.6 5.6 0 0 0 1.77 4.14q.83.8 1.98 1.24 1.16.45 2.54.45a8.6 8.6 0 0 0 3.93-.88 9 9 0 0 0 1.52-.88q.15 0 .28.12.14.13.14.27Zm-12.15-5.5 1.33-.53q.75-.3 1.45-.66l1.3-.69q.57-.31.89-.57.62-.47.62-1.59a3 3 0 0 0-.62-1.74q-.3-.39-.76-.62-.45-.23-1-.23-.48 0-1.04.34-.54.34-1.03 1.12-.49.77-.81 2.05-.33 1.29-.33 3.11Z" style="fill:#fdfdfe;fill-rule:nonzero"/><path d="M171.22 34.5q0 .76.03 1.46.04.7.24 1.2.21.5.63.82.4.3 1.17.3.38 0 .86-.09a7 7 0 0 0 2.07-.74q.1-.1.14 0 .03.1.02.27-.01.16-.09.33-.06.15-.17.23l-1.2.65q-.87.47-2.05.97-1.1.5-2.15.85t-1.75.34q-.78 0-1.24-.5t-.45-1.27a5 5 0 0 1 .07-.9l.3-3.45.15-2.4a37 37 0 0 0 .07-2.07v-1.26q0-.93-.1-1.65a3 3 0 0 0-.35-1.12q-.17-.25-.43-.41a1.2 1.2 0 0 0-1.05-.07 1 1 0 0 1-.31.09q-.07 0-.23-.22-.16-.21.02-.32.24-.18 1-.58l1.66-.86a25 25 0 0 1 1.86-.89q.9-.37 1.28-.37t.52.23a1 1 0 0 1 .14.52v.15q0 .36-.1 1.15a77 77 0 0 0-.46 4.6q-.1 1.51-.1 3.28zm-1.38-18.72q.17.03.57.4a11 11 0 0 1 1.53 1.72q.3.44.31.58 0 .18-.41.54a12 12 0 0 1-1.99 1.4q-.5.3-.7.3-.1 0-.5-.35a12 12 0 0 1-1.56-1.62q-.32-.42-.32-.56 0-.18.44-.56l.99-.79a12 12 0 0 1 1.64-1.06Z" style="fill:#fdfdfe;fill-rule:nonzero"/><path d="M175.4 39.87q-.28.17-.52.59-.25.42-.31.63-.05.07-.2.13l-.22.05q-.3 0-.31-.32 0-.12.28-.58l2.43-4.2q.4-.66.57-.88.17-.17.41-.05t.14.3a1 1 0 0 0-.1.19q-.04.1-.04.36 0 .32.54.8a7 7 0 0 0 1.36.94q.83.45 1.83.78 1 .32 1.97.32 1.14 0 1.8-.68.69-.69.68-1.8 0-1.26-.76-1.88a5 5 0 0 0-1.88-.93 19 19 0 0 0-2.45-.52q-1.32-.2-2.45-.6a5 5 0 0 1-1.88-1.15q-.76-.75-.76-2.2 0-1.11.74-2.26a8 8 0 0 1 1.97-2.06q1.23-.9 2.81-1.47a10 10 0 0 1 3.32-.58q.51 0 1.2.1a17 17 0 0 1 2.6.6q.58.16.86.27.06 0-.04.3-.1.31-.52.98-.41.67-.91 1.32l-.93 1.15q-.45.5-.6.5h-.22q-.17 0-.24-.07.04-.18.04-.47 0-1.26-1.09-1.98a5.7 5.7 0 0 0-3.16-.72q-1 0-1.64.61t-.63 1.48q0 1.4.75 2.09.76.68 1.9 1.02t2.45.53 2.45.55 1.9 1.14.76 2.26q0 .68-.28 1.34-.27.65-.72 1.22-.46.58-1 1.06-.56.48-1.1.85a17 17 0 0 1-2.6 1.44q-.75.32-1.55.52t-1.59.2a7 7 0 0 1-1.2-.16 30 30 0 0 1-3.18-.8q-.66-.2-.69-.27ZM205.84 24.42a3 3 0 0 1-.4.67q-.33.44-.78.93t-.95.94-.88.66q-.24.12-.3-.07a1 1 0 0 1-.04-.36q0-.29-.3-.72t-.82-.84a5 5 0 0 0-1.26-.7 4 4 0 0 0-1.6-.3q-1.48 0-2.4 1.68a9 9 0 0 0-.94 4.45q0 1.7.5 3.04.5 1.35 1.38 2.27.89.91 2.12 1.4 1.25.5 2.7.49 1.95 0 3.14-.53a7 7 0 0 0 2.03-1.27q.18 0 .25.12.06.14.07.3 0 .16-.07.22-.53.45-1.44 1.16a20 20 0 0 1-4.53 2.62q-1.28.5-2.52.5-3.56 0-5.54-2.15-1.99-2.16-1.99-5.9 0-2.85 1.06-4.8a9.6 9.6 0 0 1 5.85-4.78q1.72-.5 3.03-.5a10 10 0 0 1 3.37.55q.6.24.93.49t.33.43Z" style="fill:#fdfdfe;fill-rule:nonzero"/><path d="M212.19 26.76q.69-.64 1.55-1.35.86-.7 1.81-1.3t1.98-.97a6.5 6.5 0 0 1 4.44.04 5.7 5.7 0 0 1 3.23 3.1q.48 1.1.48 2.46 0 2.77-.92 5.1a19.5 19.5 0 0 1-4.57 6.96q-1.2 1.15-1.8 1.51-.16.11-.34-.07-.17-.18 0-.4.28-.22.85-1.06t1.15-2.14 1.04-2.95.45-3.56q0-1.6-.37-2.81a6 6 0 0 0-.98-2.06q-.62-.82-1.43-1.26a3.7 3.7 0 0 0-1.74-.43q-.63 0-1.32.2t-1.27.56q-.63.4-1.21.97a4 4 0 0 0-1.09 1.82 8 8 0 0 0-.19 1.57 43 43 0 0 0-.2 4.39q0 1.76.2 2.72.21.95 1.2 1.1l.25-.02a4 4 0 0 0 .66-.17q.1 0 .15.11.06.1.05.22 0 .1-.38.32-.37.22-.96.45t-1.3.47l-1.32.45-1.13.32q-.46.15-.63.15-1.04 0-1.04-.83 0-.18.17-.68.18-.51.28-1.55a220 220 0 0 0 .5-6.99 195 195 0 0 0 .19-6.76 95 95 0 0 0-.24-6.95 7 7 0 0 0-.2-1.25q-.12-.3-.25-.55a1 1 0 0 0-.43-.45 2 2 0 0 0-.86-.18q-.16.02-.16-.06 0-.5.31-.82.3-.33.83-.33a62 62 0 0 0 4.04-.14 11 11 0 0 0 2.24-.43q.28-.04.3.09l.01.45q0 .21-.17.32-.17.1-.38.18l-.4.13q-.19.04-.26.16-.14.2-.27 1.33-.15 1.11-.26 2.83a128 128 0 0 0-.33 8zM244.21 36.55q-.37.44-1.17 1.2-.8.75-1.91 1.5-1.13.75-2.5 1.3-1.39.54-2.94.54-1.42 0-2.76-.45-1.35-.45-2.42-1.37a6.6 6.6 0 0 1-1.7-2.34 8 8 0 0 1-.64-3.4q0-1.62.2-2.8.2-1.16.55-2.04.35-.9.78-1.52.43-.63.88-1.13.55-.65 1.35-1.22.8-.58 1.7-1.05a10 10 0 0 1 1.94-.74 8 8 0 0 1 2.05-.27q1.87 0 2.92.65t1.05 1.8q0 .72-.41 1.33.34-.1.88-.36l2.07-1q.44-.23.57-.33.07-.07.15-.05.09.02.09.12 0 .47-.17.78-.18.3-.42.49-.56.36-1.59.9t-2.3 1.13q-1.25.6-2.6 1.19a281 281 0 0 0-4.6 2.09q-.9.4-1.2.59a5.6 5.6 0 0 0 1.76 4.14q.84.8 1.99 1.24 1.15.45 2.54.45a8.6 8.6 0 0 0 3.93-.88 9 9 0 0 0 1.52-.88q.13 0 .27.12.15.13.14.27Zm-12.15-5.5q.6-.22 1.33-.53.75-.3 1.45-.66l1.3-.69q.58-.31.9-.57.6-.47.61-1.59a3 3 0 0 0-.62-1.74q-.3-.39-.76-.62-.45-.23-1-.23-.48 0-1.03.34t-1.04 1.12-.8 2.05q-.34 1.29-.34 3.11Z" style="fill:#fdfdfe;fill-rule:nonzero"/><path d="M260.23 25.47q-.39.32-.9.8a17 17 0 0 1-1.09.94q-.57.45-1.15.77-.6.33-1.14.33-.48 0-.87-.23a6 6 0 0 1-.7-.5q-.33-.29-.64-.51-.3-.24-.66-.24-.93 0-1.57.8-.63.79-1.03 2.01-.4 1.23-.59 2.66a21 21 0 0 0-.1 4.6q.08.69.26 1.11.17.41.46.56.3.14.71.14.45 0 .97-.14.1-.04.15.14.06.18.05.3 0 .07-.1.15-.1.1-.14.1a42 42 0 0 0-2.86 1.32q-.49.22-1.16.47a3 3 0 0 1-1.16.26q-.55 0-.91-.19-.36-.17-.36-.35 0-.19.08-.33t.16-.54l.33-2.88a40 40 0 0 0 .07-7.02 9 9 0 0 0-.44-2.27 2.5 2.5 0 0 0-.84-1.24 2.3 2.3 0 0 0-1.36-.38h-.32q-.14 0-.27.04-.2 0-.2-.22 0-.21.2-.32a42 42 0 0 1 2.81-1.67q.84-.45 1.64-.81t1.17-.36q.45 0 .76.3.3.3.47.78.16.45.22 1.06a10 10 0 0 1 .05 2.07l-.01 1a27 27 0 0 1 2.8-3.68q1.23-1.32 2.34-1.32.42 0 .81.36t.85.81q.44.45.93.81.48.36 1 .36.45 0 .66-.1l.34-.19q.27 0 .28.4zM274.18 36.55q-.37.44-1.17 1.2-.8.75-1.92 1.5t-2.5 1.3-2.93.54q-1.42 0-2.76-.45t-2.42-1.37a6.6 6.6 0 0 1-1.7-2.34 8 8 0 0 1-.65-3.4q0-1.62.21-2.8.2-1.16.55-2.04.35-.9.78-1.52.43-.63.88-1.13.56-.65 1.35-1.22.79-.58 1.7-1.05a10 10 0 0 1 1.94-.74 8 8 0 0 1 2.05-.27q1.87 0 2.92.65t1.05 1.8q0 .72-.41 1.33.34-.1.88-.36l2.07-1q.42-.23.57-.33.07-.07.15-.05.09.02.09.12 0 .47-.18.78-.17.3-.41.49-.56.36-1.59.9t-2.3 1.13q-1.25.6-2.6 1.19a281 281 0 0 0-4.6 2.09q-.9.4-1.2.59a5.6 5.6 0 0 0 1.76 4.14q.83.8 1.99 1.24 1.15.45 2.53.45a8.6 8.6 0 0 0 3.94-.88 9 9 0 0 0 1.51-.88q.15 0 .28.12.14.13.14.27Zm-12.15-5.5q.6-.22 1.33-.53.75-.3 1.45-.66l1.3-.69q.58-.31.9-.57.6-.47.61-1.59a3 3 0 0 0-.62-1.74q-.3-.39-.76-.62-.45-.23-1-.23-.49 0-1.03.34-.56.34-1.04 1.12-.48.77-.8 2.05-.34 1.29-.34 3.11" style="fill:#fdfdfe;fill-rule:nonzero"/><path d="M279.31 34.5q0 .76.04 1.46.03.7.24 1.2t.62.82q.42.3 1.17.3.38 0 .87-.09a7 7 0 0 0 2.07-.74q.1-.1.13 0 .04.1.02.27-.02.16-.09.33-.06.15-.17.23l-1.2.65q-.87.47-2.04.97-1.11.5-2.16.85t-1.74.34q-.8 0-1.24-.5-.45-.5-.45-1.27a5 5 0 0 1 .07-.9l.29-3.45.15-2.4a37 37 0 0 0 .07-2.07v-1.26q0-.93-.1-1.65a3 3 0 0 0-.35-1.12q-.16-.25-.43-.41a1.2 1.2 0 0 0-1.05-.07 1 1 0 0 1-.3.09q-.09 0-.23-.22-.15-.21.01-.32.25-.18 1-.58l1.66-.86a25 25 0 0 1 1.87-.89q.9-.37 1.27-.37.39 0 .52.23a1 1 0 0 1 .14.52v.15q0 .36-.1 1.15a77 77 0 0 0-.45 4.6q-.1 1.51-.1 3.28zm-1.38-18.72q.17.03.57.4a11 11 0 0 1 1.54 1.72q.3.44.3.58 0 .18-.4.54a12 12 0 0 1-2 1.4q-.5.3-.7.3-.1 0-.5-.35a12 12 0 0 1-1.55-1.62q-.33-.42-.33-.56 0-.18.45-.56l.98-.79a12 12 0 0 1 1.64-1.06M89.62 89q0 .47.3.7.32.24.74.24v.93h-8.12v-.93q1.15 0 1.15-.94V65.4q0-.94-1.15-.94v-.94h8.12v.94q-.42 0-.73.23-.31.25-.31.7v9.88l10.76-8.47q.73-.63 1.14-1.02.42-.39.42-.65 0-.36-.23-.52a1 1 0 0 0-.55-.15v-.94h10.92v.94q-.93 0-1.87.78l-11.96 9.51 10.92 12.64q.68.78 1.58 1.53t1.8 1.02v.93h-9.62v-.93q.67 0 .67-.37 0-.26-.72-1.14l-8.9-10.25-4.36 3.38zM134.02 75.69q1.88 0 3.12-.29 1.26-.29 1.98-.8.73-.52 1.04-1.23.3-.69.31-1.53 0-.83-.31-1.53t-1.04-1.23a6 6 0 0 0-1.98-.8q-1.25-.3-3.12-.29h-9v7.7zm1.36-12.17q2.5 0 4.52.44 2.03.45 3.48 1.4a6.5 6.5 0 0 1 2.24 2.5q.78 1.54.78 3.77 0 3.44-2.03 5.25a11 11 0 0 1-5.46 2.45l6.92 9.88q.36.52.86.62t.9.1v.94h-9.72v-.93q.47 0 .8-.16.35-.15.35-.42 0-.25-.21-.6-.21-.33-.63-.9l-5.72-8.12h-7.43V89q0 .47.34.7.33.24 1.22.24v.93h-9v-.93q1.5 0 1.51-.94V65.4q0-.94-1.5-.94v-.94zM163.82 55.46h5.72v5.72h-5.72zm9.1 0h5.72v5.72h-5.72zM171.2 68a13 13 0 0 0-7.51 2.42 9 9 0 0 0-2.57 2.89 7.7 7.7 0 0 0-1 3.9q0 2.17 1 3.9a9 9 0 0 0 2.57 2.88q1.59 1.17 3.56 1.8a13 13 0 0 0 7.9 0q1.98-.63 3.57-1.8a9 9 0 0 0 2.57-2.88q.99-1.73.99-3.9 0-2.19-.99-3.9a9 9 0 0 0-2.57-2.89A13.06 13.06 0 0 0 171.2 68m0-4.78q2.86 0 5.83.86 2.96.86 5.4 2.57a14 14 0 0 1 4.01 4.34A12 12 0 0 1 188 77.2q0 3.58-1.56 6.21a14 14 0 0 1-4 4.34 17 17 0 0 1-5.41 2.5q-2.97.78-5.83.78t-5.82-.78a17 17 0 0 1-5.4-2.5 14 14 0 0 1-4.01-4.34 12 12 0 0 1-1.56-6.21q0-3.6 1.56-6.22a14 14 0 0 1 4-4.34q2.44-1.71 5.41-2.57t5.82-.86M214.31 74.96q1.73 0 2.94-.67 1.22-.69 1.22-2.66t-1.22-2.65a6 6 0 0 0-2.94-.68h-11.07v6.66zm-18.93 15.91v-.93q1.93 0 1.93-.94V65.4q0-.94-1.93-.94v-.94h18.3q5 0 7.86 1.85 2.85 1.85 2.86 6.26 0 4.43-2.86 6.27t-7.85 1.84h-10.45V89q0 .94 1.66.94v.93zM249 74.96q1.71 0 2.93-.67 1.23-.69 1.23-2.66t-1.23-2.65a6 6 0 0 0-2.93-.68h-11.08v6.66zm-18.93 15.91v-.93q1.92 0 1.92-.94V65.4q0-.94-1.92-.94v-.94h18.3q5 0 7.85 1.85 2.86 1.85 2.86 6.26 0 4.43-2.86 6.27t-7.85 1.84h-10.45V89q0 .94 1.66.94v.93zM290.96 69.14a1 1 0 0 0-.44-.86q-.44-.3-1.54-.29h-16.84v6.45h10.19q1.04 0 1.61-.28.57-.3.57-1.49h.94v8.12h-.94q0-1.2-.57-1.54a3 3 0 0 0-1.61-.34h-10.2v7.18h17.37q.78 0 1.28-.37.5-.36.5-.98h.93v7.12h-.94q0-.78-.5-.88a6 6 0 0 0-1.27-.1h-24.23v-.94a1 1 0 0 0 .65-.24q.3-.23.29-.7V65.4q0-.48-.29-.7a1 1 0 0 0-.65-.24v-.94h23.71q1.1 0 1.54-.34.45-.34.44-.9h.94v6.86zM325.33 91.86q0-.78-.5-.88a6 6 0 0 0-1.27-.1h-24.75v-.94q1.56 0 1.56-.94V65.4q0-.94-1.56-.94v-.94h8.95v.94q-1.47 0-1.46.93v20.7h17.26q.78 0 1.28-.37.5-.36.5-.98h.93v7.12z" style="fill:#fdfdfe;fill-rule:nonzero"/><path d="M128.48 519.58a2.83 2.83 0 1 1-5.67 0 2.83 2.83 0 0 1 5.67 0M280.08 519.58a2.83 2.83 0 1 1-5.67 0 2.83 2.83 0 0 1 5.67 0" style="fill:#d3313d;fill-rule:nonzero"/><path d="M54.16 520.04h54.75M359.8 245.47v274.62M293.49 520.1h54.75M44.1 244.22v274.63M45.67 31.45v72.72M358.25 31.45v72.72M292.62 31.33h54.75M56.12 31.33h54.74" style="fill:none;fill-rule:nonzero;stroke:#d3313d;stroke-width:1px"/></svg>